<svg width="102" height="132" viewBox="0 0 102 132" fill="none" xmlns="http://www.w3.org/2000/svg">
<path d="M61.5939 123.721C69.2238 123.39 78.9031 120.953 84.8223 115.974C76.6522 116.186 68.3902 118.941 61.5939 123.721Z" fill="#FFAE00"/>
<path d="M66.9014 114.697C74.5314 114.366 84.2104 111.929 90.1299 106.951C81.9601 107.162 73.6978 109.917 66.9014 114.697Z" fill="#FFAE00"/>
<path d="M72.6084 106.102C80.2384 105.77 89.9174 103.334 95.8369 98.355C87.6671 98.5663 79.4048 101.322 72.6084 106.102Z" fill="#FFAE00"/>
<path d="M78.9764 97.2351C86.5665 95.9702 95.9226 92.3847 101.173 86.7633C93.0262 87.9766 85.131 91.7012 78.9764 97.2351Z" fill="#FFAE00"/>
<path d="M84.5739 90.6932C91.3132 86.8362 98.824 80.2558 101.62 73.3099C94.3297 77.3196 88.2666 83.5024 84.5739 90.6932Z" fill="#FFAE00"/>
<path d="M81.8606 93.7858C83.9359 86.2163 84.5805 76.0404 81.5349 68.8234C79.1711 76.8878 79.2867 85.7665 81.8606 93.7858Z" fill="#FFAE00"/>
<path d="M76.461 101.018C77.9319 92.9898 77.6701 82.3637 73.8279 75.1008C72.1014 83.6663 73.0379 92.8847 76.461 101.018Z" fill="#FFAE00"/>
<path d="M70.0266 109.889C71.4976 101.86 71.2358 91.2342 67.3936 83.9713C65.6671 92.5371 66.6035 101.756 70.0266 109.889Z" fill="#FFAE00"/>
<path d="M63.1679 121.128C64.6389 113.099 64.3771 102.473 60.5349 95.2103C58.8084 103.776 59.7448 112.995 63.1679 121.128Z" fill="#FFAE00"/>
<path d="M60.5538 125.279C59.4487 127.32 58.5828 128.986 58.0097 130.151C57.7323 130.716 57.5125 131.164 57.3511 131.492C57.2849 131.633 57.2307 131.749 57.1865 131.844C57.1507 131.924 57.1347 131.966 57.1391 131.969C57.1435 131.971 57.1686 131.933 57.2128 131.858C57.2642 131.766 57.3266 131.655 57.4031 131.519C57.5762 131.196 57.8119 130.757 58.1097 130.203C58.7132 129.055 59.6061 127.404 60.7331 125.378C61.8542 123.348 63.2399 120.96 64.8168 118.331C66.4075 115.71 68.2019 112.857 70.1588 109.909C74.0813 104.021 77.9192 98.8877 80.7846 95.2424C82.2169 93.4194 83.3919 91.9553 84.2155 90.9534C84.6111 90.4634 84.9243 90.0756 85.1541 89.7909C85.2501 89.6674 85.3284 89.5668 85.3927 89.484C85.4451 89.4138 85.4701 89.3762 85.4664 89.373C85.4626 89.3699 85.43 89.4009 85.3701 89.4649C85.2999 89.5426 85.2143 89.6373 85.1096 89.7536C84.8695 90.0298 84.5425 90.406 84.1293 90.8816C83.2785 91.8616 82.0787 93.3068 80.6244 95.1154C77.7154 98.7316 73.8459 103.853 69.918 109.749" fill="#F6F6F6"/>
<path d="M47.3861 72.4981C50.1709 65.6231 51.9225 56.0886 49.9114 48.8502C46.8024 56.1538 45.9042 64.565 47.3861 72.4981Z" fill="#FFAE00"/>
<path d="M41.5544 64.1682C44.3392 57.2931 46.0907 47.7587 44.0796 40.5203C40.9706 47.8242 40.0725 56.2354 41.5544 64.1682Z" fill="#FFAE00"/>
<path d="M36.2617 55.6593C39.0465 48.7842 40.798 39.2498 38.7869 32.0114C35.6779 39.3153 34.7797 47.7265 36.2617 55.6593Z" fill="#FFAE00"/>
<path d="M30.9967 46.4566C32.9407 39.2405 33.5467 29.5276 30.698 22.6212C28.4837 30.3089 28.59 38.7865 30.9967 46.4566Z" fill="#FFAE00"/>
<path d="M27.4746 38.8722C26.7855 31.362 24.0007 22.0718 18.9919 16.7993C19.5935 24.8585 22.6106 32.7094 27.4746 38.8722Z" fill="#FFAE00"/>
<path d="M29.1122 42.5169C23.2616 37.6301 14.5307 32.9558 6.92578 32.7357C13.0973 38.0771 20.9888 41.5564 29.1122 42.5169Z" fill="#FFAE00"/>
<path d="M33.3245 50.2052C26.8244 45.667 17.3301 41.6122 9.3634 42.0771C16.2347 47.0577 24.7575 49.9488 33.3245 50.2052Z" fill="#FFAE00"/>
<path d="M38.5667 59.4679C32.0665 54.9297 22.5722 50.8749 14.6055 51.3398C21.4771 56.3207 29.9996 59.2118 38.5667 59.4679Z" fill="#FFAE00"/>
<path d="M45.7302 70.0614C39.2297 65.5232 29.7357 61.4684 21.769 61.9333C28.6403 66.9142 37.1631 69.8053 45.7302 70.0614Z" fill="#FFAE00"/>
<path d="M48.3429 74.0454C49.7 75.8449 50.8233 77.2823 51.6212 78.2582C52.0087 78.7316 52.3156 79.1062 52.5407 79.3812C52.6391 79.4969 52.7194 79.5912 52.7852 79.6686C52.8416 79.7326 52.8724 79.7636 52.8761 79.7605C52.8799 79.7574 52.8567 79.7204 52.8078 79.6508C52.7479 79.5686 52.6745 79.4683 52.5852 79.3457C52.3704 79.063 52.0773 78.6774 51.7074 78.1905C50.9368 77.1945 49.8383 75.7395 48.5025 73.9266C47.1616 72.1174 45.6104 69.9298 43.9238 67.476C42.25 65.0135 40.4524 62.2772 38.6376 59.3589C35.0176 53.5184 32.0299 48.0566 29.9649 44.0544C28.9319 42.0534 28.1124 40.425 27.5594 39.293C27.286 38.7459 27.0697 38.3127 26.9111 37.9948C26.8409 37.8603 26.7832 37.7503 26.7362 37.6603C26.6954 37.5857 26.6722 37.5484 26.6678 37.5502C26.6634 37.5524 26.6779 37.5935 26.7101 37.6725C26.7506 37.7659 26.7998 37.8797 26.86 38.0189C27.007 38.3425 27.2077 38.7832 27.461 39.34C27.9839 40.4871 28.7767 42.1298 29.7878 44.1444C31.8092 48.1732 34.7737 53.6579 38.3987 59.5065" fill="#F6F6F6"/>
<path d="M65.2601 12.4793C66.4899 12.5893 67.726 11.6579 67.959 10.4453C68.1922 9.23265 67.3897 7.90937 66.2068 7.55542C66.9508 6.75537 67.1103 5.46877 66.5852 4.51071C66.0601 3.55266 64.8895 2.99588 63.8148 3.19276C63.7437 2.11651 63.0746 1.0992 62.1144 0.607322C61.1545 0.115441 59.9378 0.16717 59.0227 0.738681C57.8069 -0.253547 55.8858 -0.245083 54.6788 0.75749C53.627 0.589454 52.4987 1.17476 52.03 2.13156C51.5614 3.08805 51.7912 4.3386 52.5686 5.06655" fill="#032433"/>
<path d="M54.198 3.2564L54.7516 3.24355C60.3216 3.11376 65.0579 7.28206 65.6348 12.8238C66.1715 17.978 66.6985 23.6794 66.7289 26.4504C66.7916 32.1884 61.0752 33.2141 61.0752 33.2141L61.721 40.0945L47.7894 39.9879L45.9752 15.0227C45.3228 9.0781 48.238 3.74421 54.198 3.2564Z" fill="#FFBF9D"/>
<path d="M61.0829 33.2126C61.0829 33.2126 57.0829 33.5104 53.1736 31.1802C53.1736 31.1802 55.5045 35.362 61.2161 34.7118L61.0829 33.2126Z" fill="#FF9A6C"/>
<path d="M63.8825 19.0494C63.9082 19.4818 63.5628 19.8595 63.112 19.8943C62.6621 19.9288 62.2759 19.6078 62.2505 19.1755C62.2251 18.7432 62.5699 18.3651 63.0201 18.33C63.4709 18.2952 63.8571 18.6171 63.8825 19.0494Z" fill="#032433"/>
<path d="M64.4667 15.6593C64.3677 15.7687 63.7366 15.3235 62.855 15.3464C61.9741 15.3564 61.3377 15.8251 61.2399 15.7195C61.1916 15.6727 61.2907 15.4774 61.5675 15.2658C61.8399 15.0551 62.3083 14.8454 62.8575 14.8351C63.4068 14.8254 63.8733 15.0166 64.1435 15.2172C64.4194 15.4191 64.5156 15.61 64.4667 15.6593Z" fill="#032433"/>
<path d="M56.2923 19.0495C56.3177 19.4818 55.9725 19.8596 55.5217 19.8941C55.0718 19.9289 54.6856 19.6075 54.6602 19.1752C54.6348 18.7432 54.98 18.3648 55.4302 18.33C55.8807 18.2949 56.2669 18.6172 56.2923 19.0495Z" fill="#032433"/>
<path d="M55.8066 16.0254C55.7075 16.1345 55.0752 15.69 54.1946 15.7129C53.314 15.7232 52.6776 16.1916 52.5794 16.0859C52.5315 16.0392 52.6293 15.8439 52.9074 15.6323C53.1798 15.4216 53.6478 15.2122 54.1971 15.2015C54.746 15.1915 55.2128 15.3831 55.4834 15.5837C55.7583 15.7856 55.8552 15.9765 55.8066 16.0254Z" fill="#032433"/>
<path d="M59.1577 22.4882C59.1523 22.438 59.6982 22.3305 60.5832 22.1963C60.8076 22.1681 61.0199 22.1183 61.054 21.9637C61.1033 21.7997 61.0032 21.5593 60.8882 21.3C60.664 20.7605 60.4292 20.1946 60.1828 19.6015C59.2013 17.1825 58.4855 15.1918 58.5833 15.1529C58.6812 15.1144 59.5558 17.0436 60.5371 19.4623C60.7738 20.0589 60.9998 20.6276 61.2149 21.1715C61.3061 21.4254 61.4594 21.7123 61.3522 22.0521C61.2954 22.2217 61.133 22.3477 60.9898 22.3901C60.8465 22.4374 60.7198 22.4427 60.6089 22.4518C59.7166 22.5211 59.1624 22.538 59.1577 22.4882Z" fill="#032433"/>
<path d="M55.9928 14.2051C55.8818 14.4315 55.1206 14.2067 54.1898 14.1982C53.2594 14.1687 52.4797 14.3625 52.3894 14.1321C52.3502 14.0223 52.5107 13.8176 52.8418 13.6308C53.17 13.4442 53.6726 13.2941 54.2306 13.3047C54.7883 13.3166 55.2764 13.4866 55.5871 13.6866C55.9 13.8863 56.042 14.0973 55.9928 14.2051Z" fill="#032433"/>
<path d="M64.4249 12.0231C64.2437 12.2275 63.5117 12.0366 62.6364 12.0476C61.7611 12.0325 61.0238 12.2197 60.8485 12.0144C60.7714 11.9144 60.8833 11.7112 61.2025 11.514C61.5169 11.3178 62.047 11.1507 62.6486 11.1522C63.2499 11.1541 63.7754 11.3234 64.0845 11.5212C64.3983 11.72 64.5046 11.9238 64.4249 12.0231Z" fill="#032433"/>
<path d="M65.0218 10.2061C65.0218 10.2061 63.4251 6.64911 61.6733 5.85094C59.5528 4.88504 58.7035 7.20777 56.6924 6.69582C54.681 6.18388 52.6564 5.25686 50.65 6.84912C48.4539 8.59218 49.5289 9.75401 49.4502 12.3021C49.1308 22.6338 47.3147 25.5958 46.6651 20.7481C46.5939 20.2171 45.1064 19.828 44.8349 17.5834C44.4828 14.6725 44.2881 11.1331 44.891 9.0477C45.3992 7.2899 46.366 6.06098 48.1191 4.69005C50.8867 2.52627 54.754 2.39084 57.3874 2.59399C60.0205 2.79745 65.1559 5.70234 65.0218 10.2061Z" fill="#032433"/>
<path d="M47.0268 20.5836C46.9701 19.6989 46.191 19.018 45.3107 19.1224C44.2433 19.2491 43.067 19.8842 43.1893 22.0931C43.4059 26.0119 47.2955 24.9858 47.2961 24.8732C47.2964 24.7968 47.1322 22.2229 47.0268 20.5836Z" fill="#FFBF9D"/>
<path d="M46.3619 23.4462C46.344 23.4346 46.2961 23.4979 46.1838 23.5572C46.0744 23.6148 45.8829 23.6609 45.6741 23.5957C45.2515 23.4669 44.8665 22.8289 44.8088 22.1235C44.779 21.7677 44.8352 21.4238 44.9461 21.1357C45.0499 20.8422 45.2239 20.6319 45.4305 20.5833C45.6352 20.5237 45.7898 20.6403 45.8437 20.7479C45.9023 20.8545 45.8819 20.9341 45.9029 20.9397C45.9145 20.9491 45.9835 20.8692 45.9431 20.7093C45.9227 20.6325 45.8716 20.5425 45.7753 20.4723C45.6772 20.4011 45.5365 20.3698 45.3922 20.3936C45.0913 20.4312 44.8345 20.7244 44.7129 21.0404C44.5746 21.3589 44.5032 21.7457 44.5367 22.1455C44.6054 22.9336 45.0505 23.6506 45.6261 23.7826C45.9058 23.8393 46.1312 23.7434 46.245 23.6446C46.36 23.5412 46.3757 23.4524 46.3619 23.4462Z" fill="#FF9A6C"/>
<path d="M46.9267 12.9837C47.444 13.3194 47.9904 13.6652 48.6055 13.7119C49.2206 13.7583 49.914 13.3897 50.0034 12.7793C50.0435 12.505 49.9695 12.1899 50.1438 11.9748C50.352 11.7181 50.7492 11.7877 51.0784 11.815C52.2214 11.9093 53.5243 10.619 53.7886 9.50289C54.0895 9.93145 54.7297 10.0484 55.163 9.75432C55.5965 9.46057 55.753 9.29473 56.0884 8.8922C56.4236 8.48998 56.8988 8.126 57.4189 8.18745C57.7098 8.22193 57.9851 8.38809 58.2763 8.35549C58.7905 8.2978 59.0278 7.68898 59.0936 7.17578C59.1598 6.6629 59.2065 6.06505 59.636 5.77695C60.0341 5.50985 60.5614 5.64684 61.0373 5.70547C61.5129 5.76409 62.1224 5.63869 62.233 5.17221C62.291 4.92768 62.1807 4.67405 62.0412 4.46495C61.4082 3.51787 60.0664 3.12192 59.0206 3.57336C58.6068 2.28644 57.3713 1.30612 56.0238 1.19577C54.6764 1.08511 53.298 1.85099 52.6801 3.05357C51.8336 2.32092 50.6219 2.03344 49.5366 2.30776C48.4513 2.58207 47.5217 3.41065 47.1248 4.45774C46.1652 4.2292 45.0865 4.62327 44.5002 5.41705C43.9143 6.21083 43.8547 7.35761 44.3557 8.20783C43.66 8.62698 43.0728 9.34144 43.0772 10.1537C43.0816 10.9657 43.8911 11.756 44.6695 11.5243C44.3676 12.1636 44.6454 13.0153 45.2658 13.3542C45.8865 13.6931 46.753 13.4662 47.1277 12.8664" fill="#032433"/>
<path d="M59.3392 4.72107C59.3423 4.72139 59.3426 4.74553 59.3401 4.79287C59.336 4.83989 59.3348 4.91137 59.3201 5.00291C59.2884 5.18474 59.2216 5.45467 59.053 5.76503C58.883 6.07101 58.6166 6.42589 58.2049 6.71243C57.8018 7.0021 57.2447 7.22813 56.6092 7.20776L56.6735 7.11935C56.803 7.45197 56.7791 7.85513 56.6202 8.20375C56.47 8.55831 56.2283 8.87495 55.9716 9.18375C55.8399 9.33235 55.7267 9.50603 55.543 9.64397C55.3646 9.77658 55.1489 9.85589 54.927 9.88912C54.4862 9.9559 53.9837 9.83081 53.6542 9.46621L53.7996 9.42107C53.7181 10.2029 53.2927 10.9933 52.5996 11.4852C52.2331 11.7632 51.7757 11.9388 51.3214 11.9372C50.8672 11.9435 50.4424 11.82 50.0458 11.6883L50.1496 11.6397C49.9502 12.1322 49.636 12.5554 49.2495 12.8718C48.8705 13.1875 48.3604 13.379 47.892 13.2759C46.9619 13.1016 46.3299 12.346 46.1891 11.624L46.2791 11.6632C45.8258 11.9244 45.3333 11.9598 44.9361 11.8927C44.5335 11.8287 44.2147 11.662 43.9868 11.4955C43.7576 11.3256 43.6203 11.1491 43.5372 11.0265C43.4607 10.8989 43.4287 10.8281 43.4331 10.8259C43.4526 10.8092 43.5701 11.1209 44.025 11.4416C44.252 11.5946 44.5633 11.7463 44.9505 11.7987C45.3326 11.8548 45.7988 11.8099 46.2173 11.5604L46.2897 11.5171L46.3073 11.5999C46.4474 12.2733 47.0553 12.9777 47.9177 13.1295C48.3419 13.2185 48.7905 13.0473 49.1498 12.7486C49.5106 12.4504 49.81 12.0426 49.9953 11.5798L50.0245 11.5065L50.0991 11.5309C50.4894 11.6595 50.8994 11.7748 51.3192 11.7679C51.7393 11.767 52.1497 11.6109 52.4992 11.3475C53.1541 10.882 53.5532 10.1424 53.6344 9.40226L53.6548 9.21604L53.7802 9.3568C54.0583 9.66873 54.5078 9.78912 54.9044 9.72987C55.1032 9.70134 55.2947 9.63143 55.4505 9.51731C55.6026 9.40759 55.7208 9.23579 55.8543 9.08594C56.1108 8.78216 56.3462 8.47743 56.4892 8.14763C56.6406 7.82159 56.6628 7.46702 56.5515 7.16575L56.5174 7.07295L56.6161 7.07734C57.2149 7.10367 57.7516 6.89833 58.1457 6.62653C58.5482 6.35849 58.8147 6.02116 58.9896 5.72898C59.3323 5.12769 59.311 4.71261 59.3392 4.72107Z" fill="#455A64"/>
<path d="M31.1301 39.4791C31.1301 39.4791 16.3887 44.671 12.1245 46.8156C8.79321 48.491 6.68241 54.5694 11.8088 57.1028C15.6313 58.992 36.3242 55.3817 36.3242 55.3817L31.1301 39.4791Z" fill="#FFBF9D"/>
<path d="M76.1329 91.0919L38.6778 89.6746L37.3216 102.425L35.8212 128L54.9407 128.081C54.9485 127.972 57.3251 113.704 57.3251 113.704L58.4054 113.421L58.3051 128.081H76.2251C77.1659 115.95 77.7036 105.761 77.7365 104.802C77.9973 97.224 76.1329 91.0919 76.1329 91.0919Z" fill="#032433"/>
<path d="M55.9771 105.758C55.9702 105.775 56.1705 105.881 56.5461 106.048C56.9229 106.206 57.4766 106.449 58.2199 106.555C58.5907 106.606 59.0102 106.608 59.4472 106.512C59.8811 106.416 60.3404 106.21 60.7041 105.841C61.0677 105.472 61.2906 104.968 61.4242 104.448C61.559 103.924 61.6261 103.382 61.7129 102.831C62.0446 100.62 62.2471 98.6047 62.3531 97.1442C62.4064 96.414 62.4368 95.8221 62.4499 95.4127C62.4622 95.0033 62.4587 94.7763 62.4396 94.775C62.4198 94.7738 62.3866 94.9982 62.3402 95.4045C62.2897 95.8704 62.2277 96.4457 62.154 97.126C61.9972 98.579 61.764 100.584 61.4333 102.789C61.2643 103.879 61.1646 104.987 60.5163 105.66C59.8686 106.322 58.9325 106.428 58.2424 106.356C57.5299 106.28 56.9712 106.071 56.5853 105.945C56.2003 105.811 55.9849 105.739 55.9771 105.758Z" fill="#455A64"/>
<path d="M59.5484 95.2806C59.5521 95.2684 59.459 95.2147 59.2712 95.2113C59.0853 95.2053 58.806 95.2737 58.5364 95.4825C58.2784 95.6897 58.0104 96.054 58.0191 96.5349C58.0179 97.0224 58.4179 97.4851 58.9204 97.6422C59.4189 97.813 60.0152 97.6767 60.3027 97.2829C60.5942 96.9004 60.5936 96.448 60.5077 96.1283C60.414 95.8007 60.229 95.5803 60.0757 95.4753C59.9218 95.3671 59.8155 95.3552 59.8111 95.3674C59.7763 95.4053 60.1954 95.5753 60.3136 96.1744C60.3663 96.4568 60.3359 96.8365 60.1001 97.1199C59.8744 97.4092 59.4211 97.5108 59.0082 97.3744C58.5947 97.2399 58.2894 96.8901 58.2784 96.5233C58.2561 96.1556 58.4561 95.8317 58.6656 95.6348C59.1154 95.221 59.5537 95.332 59.5484 95.2806Z" fill="#455A64"/>
<path d="M38.678 101.658C38.6774 101.677 38.8394 101.694 39.1344 101.709C39.4291 101.729 39.8577 101.718 40.384 101.67C41.4361 101.579 42.8864 101.261 44.3545 100.572C45.8204 99.8762 46.9879 98.9583 47.7272 98.2043C48.0987 97.8281 48.3789 97.5039 48.551 97.2638C48.7272 97.0268 48.8166 96.8907 48.8012 96.8788C48.7623 96.8475 48.3554 97.3553 47.5892 98.0601C46.8262 98.7658 45.6678 99.636 44.2341 100.316C42.7983 100.991 41.3904 101.332 40.3605 101.473C39.3291 101.616 38.6783 101.607 38.678 101.658Z" fill="#455A64"/>
<path d="M76.888 89.013C76.1531 87.3401 76.2895 87.1862 76.2895 87.1862L74.2069 68.9631L72.2068 51.2356L70.5847 38.114L61.2151 36.1076C61.2151 36.1076 60.1364 39.0966 55.6073 39.1872C50.3894 39.2912 47.3992 34.6257 47.3992 34.6257L32.4174 37.8422L38.0516 76.4849L38.7272 86.8934C38.7272 86.8934 37.6086 88.5775 37.6086 90.3842C37.6086 92.1909 37.5352 93.3951 37.5352 93.3951C51.4415 97.2154 65.2414 100.524 77.9391 96.8254C77.9391 96.826 77.6225 90.6858 76.888 89.013Z" fill="#455A64"/>
<path d="M67.1667 37.4301C67.1667 37.4301 72.5671 38.0332 74.4832 40.0672C76.3993 42.1012 82.5245 52.1646 82.5245 52.1646L73.628 64.3359L69.5064 58.7117L67.1667 37.4301Z" fill="#455A64"/>
<path d="M71.2838 43.7283C71.3587 43.7211 72.2096 50.4102 73.1839 58.6672C74.1589 66.927 74.8884 73.6268 74.8135 73.634C74.7389 73.6412 73.888 66.9533 72.9131 58.6935C71.9384 50.4365 71.2089 43.7355 71.2838 43.7283Z" fill="#032433"/>
<path d="M32.417 37.8424L20.4213 43.1669L24.7617 55.31L36.3242 57.1424L32.417 37.8424Z" fill="#455A64"/>
<path d="M34.0688 45.8917C34.1487 45.8833 34.7209 50.6209 35.3469 56.4724C35.973 62.3257 36.4156 67.0762 36.3357 67.085C36.2557 67.0934 35.6836 62.3568 35.0576 56.5034C34.4315 50.6519 33.9888 45.9002 34.0688 45.8917Z" fill="#032433"/>
<g opacity="0.3">
<path d="M37.0259 107.462C43.5388 105.12 47.1475 100.506 50.0606 95.6119C52.9733 90.7182 53.39 83.8265 51.5253 78.4453C51.5253 78.4453 38.0651 91.4662 37.9695 91.7531C37.8739 92.0402 37.0259 107.462 37.0259 107.462Z" fill="black"/>
</g>
<g opacity="0.3">
<path d="M55.3467 39.0186C55.1856 40.3406 55.9242 41.6153 56.8302 42.5915C57.7365 43.5678 58.8335 44.3631 59.6592 45.4083C60.6019 46.6012 61.1415 48.0546 61.6663 49.4813C62.7623 52.4608 63.8582 55.44 64.9542 58.4195C65.8982 60.9855 66.8547 63.5766 68.3513 65.8645C69.848 68.1524 71.9553 70.1438 74.5583 70.9805L72.582 54.1951L62.1569 37.4294L55.3467 39.0186Z" fill="black"/>
</g>
<path d="M66.1486 39.1645C66.1486 38.9536 66.316 31.1788 65.7947 30.3342C65.2733 29.4899 64.8561 28.698 64.752 27.9064C64.752 27.9064 65.0363 27.4447 64.5181 27.1553C63.9999 26.8659 63.1779 27.5713 63.16 28.819C63.1422 30.0668 63.2851 32.2011 63.2851 32.2011C63.2851 32.2011 57.5496 28.9457 55.9771 28.8551C54.4046 28.7648 52.0462 28.4754 51.9211 29.2351C51.796 29.9947 51.9032 30.1756 52.7252 30.4649C53.5472 30.7543 54.8514 30.9533 56.138 31.3872C57.4246 31.8214 58.0139 32.1161 58.0139 32.1161C58.0139 32.1161 55.0837 31.2534 54.4404 32.1161C53.7971 32.9786 53.8864 33.7563 54.2974 34.1724C54.2974 34.1724 53.4218 34.5341 53.5111 35.4925C53.6005 36.4512 54.0294 36.6863 54.0294 36.6863C54.0294 36.6863 53.1716 37.3375 53.5826 38.1695C53.9936 39.0015 54.9586 38.477 55.8696 39.4175C56.7809 40.358 59.0501 42.5644 59.9257 43.0529C60.8013 43.5413 62.8023 43.7401 62.8023 43.7401L66.1486 39.1645Z" fill="#FFBF9D"/>
<path d="M66.149 39.1647C66.1509 39.1653 66.1337 39.192 66.0979 39.244C66.0584 39.3002 66.0051 39.3763 65.9355 39.4751C65.7866 39.6829 65.5713 39.9836 65.2929 40.3726C64.7214 41.162 63.8903 42.3104 62.8372 43.7653L62.8231 43.7851L62.799 43.7826C62.403 43.7409 61.9905 43.6826 61.5619 43.602C61.134 43.5205 60.6882 43.4211 60.2421 43.2524C60.0176 43.1722 59.8 43.0477 59.6019 42.9035C59.3997 42.7625 59.2059 42.6057 59.0091 42.4455C58.6188 42.122 58.2288 41.7737 57.8328 41.4091C57.4369 41.0438 57.0356 40.6617 56.629 40.2635C56.4271 40.0629 56.2227 39.8598 56.0155 39.6541C55.8111 39.4412 55.6107 39.2378 55.3546 39.0973C55.1032 38.9509 54.8138 38.8798 54.5169 38.8139C54.2279 38.7478 53.879 38.6788 53.6611 38.4051C53.4479 38.1506 53.3557 37.7913 53.4369 37.4599C53.5209 37.1292 53.7275 36.8511 53.9893 36.6335L53.9978 36.7464C53.7708 36.5887 53.6604 36.3598 53.5727 36.1241C53.4924 35.8846 53.4479 35.6385 53.4391 35.378C53.43 35.1162 53.5081 34.8469 53.6586 34.6237C53.8131 34.402 54.02 34.2255 54.2715 34.108L54.2483 34.2227C53.8811 33.8559 53.826 33.2706 53.9949 32.8016C54.0739 32.5618 54.1959 32.3386 54.3417 32.1335C54.4088 32.0292 54.5154 31.9213 54.6317 31.8614C54.7483 31.7968 54.8731 31.7555 54.9988 31.7247C55.5054 31.6182 56.0192 31.662 56.5246 31.7269C57.0315 31.7978 57.5337 31.9053 58.0356 32.0458L57.9817 32.1831C57.2284 31.837 56.4133 31.5451 55.5847 31.2927C54.7511 31.0438 53.8805 30.8811 53.0121 30.6356C52.7011 30.5372 52.3914 30.4479 52.1017 30.2623C51.9572 30.1688 51.8381 30.0017 51.8161 29.824C51.7895 29.65 51.8111 29.4857 51.8324 29.3262C51.8443 29.2531 51.8515 29.1553 51.9048 29.0703C51.9556 28.9888 52.0274 28.9296 52.1011 28.8835C52.2522 28.7963 52.413 28.7534 52.5717 28.7224C52.8905 28.6637 53.2084 28.6531 53.5228 28.6515C54.152 28.6521 54.7709 28.7001 55.3825 28.7424C55.6888 28.7675 55.9885 28.7706 56.3023 28.8311C56.4534 28.865 56.5995 28.9111 56.7475 28.9503L57.1773 29.0998C58.3059 29.5287 59.3621 30.0485 60.3825 30.5654C61.4014 31.0861 62.3804 31.6138 63.3194 32.143L63.2188 32.206C63.1485 30.9742 63.0755 29.7955 63.1071 28.6546C63.1501 28.0863 63.3661 27.501 63.841 27.1715C63.9605 27.0943 64.0997 27.0404 64.2461 27.0351C64.3922 27.0266 64.542 27.0868 64.6496 27.1715C64.7618 27.2549 64.8562 27.3812 64.8797 27.5264C64.9038 27.6718 64.8699 27.8113 64.8013 27.9367L64.8091 27.8994C64.933 28.7678 65.3665 29.5161 65.7713 30.1964C65.8211 30.277 65.881 30.3729 65.9079 30.4726C65.9415 30.5701 65.9591 30.6673 65.9791 30.7639C66.0142 30.9573 66.0393 31.1482 66.0584 31.3363C66.0979 31.7128 66.1208 32.0781 66.1396 32.4314C66.2077 33.8443 66.2067 35.0641 66.2064 36.0617C66.2033 37.0593 66.1895 37.8352 66.1776 38.3615C66.1704 38.6202 66.1647 38.8199 66.1606 38.9606C66.1556 39.0951 66.149 39.1647 66.149 39.1647C66.149 39.1647 66.144 39.0961 66.1437 38.9603C66.1437 38.8196 66.144 38.6199 66.1443 38.3612C66.144 37.8289 66.1434 37.0549 66.1425 36.062C66.133 35.0651 66.1246 33.8459 66.0484 32.4367C66.0277 32.0846 66.0026 31.7207 65.9616 31.3473C65.9415 31.1608 65.9158 30.9717 65.8804 30.783C65.8402 30.5896 65.8023 30.4159 65.6829 30.2503C65.2737 29.5682 64.8286 28.8151 64.6957 27.9148L64.6931 27.8969L64.7038 27.8775C64.7565 27.7812 64.7862 27.6568 64.7656 27.5467C64.7464 27.4351 64.6753 27.3373 64.5787 27.2655C64.3868 27.1044 64.1169 27.1301 63.9063 27.2724C63.4815 27.5668 63.2692 28.1214 63.2319 28.664C63.2043 29.7835 63.2796 30.972 63.3529 32.1975L63.3601 32.321L63.2523 32.2605C62.3149 31.7351 61.3352 31.2097 60.3179 30.6918C59.2997 30.1776 58.2435 29.6603 57.1265 29.2374L56.7033 29.0907C56.5597 29.0531 56.4164 29.0076 56.2719 28.9757C55.9885 28.9199 55.6763 28.9145 55.3718 28.8904C54.7602 28.8487 54.1432 28.801 53.5228 28.801C53.2134 28.8026 52.9011 28.8142 52.5996 28.8697C52.3096 28.9286 51.9719 29.0318 51.9804 29.3478C51.9594 29.5014 51.9412 29.6578 51.9638 29.8002C51.9842 29.9431 52.0641 30.056 52.187 30.1394C52.4375 30.3014 52.7532 30.3977 53.0541 30.4917C53.9091 30.7338 54.7859 30.8984 55.6264 31.1492C56.4672 31.4062 57.2745 31.695 58.0476 32.0508L57.9936 32.1881C57.5024 32.0502 57.0017 31.9426 56.5042 31.8727C56.0083 31.8075 55.5019 31.7671 55.0311 31.8664C54.7994 31.9222 54.5793 32.0169 54.4592 32.2172C54.3197 32.4126 54.2047 32.6239 54.131 32.8464C53.9733 33.2847 54.0288 33.8032 54.3483 34.1236L54.4191 34.1945L54.3251 34.2384C54.1084 34.3393 53.9094 34.5058 53.7739 34.7024C53.6394 34.9021 53.5695 35.1388 53.5771 35.3764C53.584 35.614 53.6275 35.8589 53.7015 36.0793C53.7761 36.2953 53.8993 36.5147 54.0624 36.6279L54.1414 36.6827L54.0705 36.7411C53.8348 36.9354 53.6376 37.201 53.5658 37.4909C53.4927 37.7791 53.5752 38.0988 53.7608 38.3214C53.9417 38.5547 54.2514 38.6221 54.5445 38.6888C54.8417 38.7556 55.1483 38.8312 55.4157 38.9876C55.6863 39.1362 55.9051 39.3607 56.1026 39.5679C56.3086 39.7739 56.5117 39.9773 56.7127 40.1783C57.1171 40.577 57.5162 40.9598 57.9096 41.3257C58.3034 41.6912 58.6909 42.0398 59.0771 42.3631C59.4684 42.6772 59.8411 43.0016 60.2781 43.1593C60.7123 43.3261 61.1547 43.4277 61.5788 43.5111C62.0036 43.5935 62.4152 43.6544 62.8071 43.6982L62.7692 43.7152C63.8335 42.2743 64.6737 41.137 65.2515 40.3551C65.5386 39.9704 65.7603 39.6732 65.9139 39.4676C65.9879 39.3704 66.0446 39.2955 66.0866 39.2403C66.1261 39.1898 66.149 39.1647 66.149 39.1647Z" fill="#FF9A6C"/>
<path d="M84.7376 57.316C84.1645 56.2206 82.8701 53.9409 82.2462 52.5452L78.1463 54.0352C78.1463 54.0352 66.5321 38.3464 66.1612 38.3464C65.7903 38.3464 60.7461 43.0232 60.7461 43.0232C60.9687 43.2458 71.4258 67.2123 75.4314 69.8084C79.437 72.4045 82.4221 74.0531 84.573 70.3444C86.724 66.6357 87.2594 62.1373 84.7376 57.316Z" fill="#FFBF9D"/>
<path d="M83.3971 61.0768C83.3877 61.0815 83.3197 60.9727 83.2046 60.7727C83.0911 60.5717 82.9219 60.2836 82.7077 59.9316C82.2811 59.2262 81.6494 58.2775 80.8829 57.28C80.116 56.2821 79.3718 55.4181 78.8304 54.7945C78.5755 54.5008 78.3608 54.2534 78.189 54.0559C78.0385 53.8804 77.9592 53.7801 77.9667 53.7728C77.9742 53.7659 78.0683 53.8528 78.2319 54.0164C78.3959 54.1795 78.6275 54.4209 78.9094 54.724C79.4718 55.3303 80.2314 56.1865 81.002 57.1891C81.7723 58.1913 82.3939 59.1556 82.7993 59.8779C83.0027 60.2388 83.1582 60.5357 83.2561 60.7457C83.3557 60.9545 83.4062 61.0721 83.3971 61.0768Z" fill="#FF9A6C"/>
<path d="M59.7721 26.1404C59.668 26.2172 59.2357 25.7718 58.5492 25.5319C57.8689 25.2746 57.2516 25.3379 57.2212 25.2122C57.2077 25.1551 57.3557 25.056 57.63 25.0037C57.9018 24.9504 58.2999 24.9626 58.7034 25.1087C59.1063 25.2557 59.4188 25.5025 59.5931 25.7178C59.7693 25.9345 59.8188 26.1053 59.7721 26.1404Z" fill="#032433"/>
<path d="M70.2562 88.9055C70.2587 88.9102 70.2092 88.9387 70.1129 88.9895C70.0151 89.0369 69.8759 89.1206 69.6837 89.1977C69.3028 89.3604 68.7269 89.5501 67.9902 89.6535C67.2544 89.756 66.3619 89.7673 65.3888 89.6407C64.415 89.5172 63.3623 89.272 62.2817 88.9466C60.1226 88.2867 58.2115 87.5631 56.844 87.0035C56.1603 86.7236 55.6123 86.484 55.2361 86.3132C55.0611 86.2317 54.9185 86.1649 54.805 86.1119C54.7072 86.0643 54.657 86.037 54.6589 86.032C54.6611 86.0273 54.7154 86.0455 54.8169 86.084C54.9332 86.1301 55.0796 86.1881 55.259 86.2593C55.6615 86.4192 56.2117 86.6377 56.8832 86.9044C58.2585 87.4377 60.1728 88.1443 62.3249 88.8021C63.4009 89.1262 64.4439 89.3733 65.407 89.503C66.3694 89.6357 67.2494 89.6353 67.977 89.5479C68.7056 89.4592 69.2784 89.288 69.6627 89.1432C70.0433 88.992 70.2499 88.893 70.2562 88.9055Z" fill="#032433"/>
<path d="M41.8883 58.9945C36.6525 55.468 30.4252 54.2083 26.3434 54.2058C22.5206 54.2033 16.8945 54.8024 11.8008 57.6712C8.63724 59.4529 6.11232 61.8884 4.29652 64.9096C2.1456 68.4886 0.979696 72.9177 0.831411 78.0741C0.809152 78.8479 1.09444 79.5802 1.6346 80.1367C2.17758 80.6959 2.90584 81.0041 3.6852 81.0047L13.7087 81.0113C15.1229 81.0123 16.3393 79.958 16.5384 78.5585C16.9848 75.4157 18.8539 70.1244 26.355 69.9999C32.0717 69.9081 34.4242 74.0441 35.1719 75.8279C36.3883 78.7306 36.077 82.1719 34.3389 85.0332C31.6688 89.4291 26.7616 90.0991 24.0743 90.1069C20.9838 90.1163 18.468 92.6234 18.4658 95.6957L18.4586 106.482C18.4576 108.057 19.7383 109.339 21.3133 109.34L31.0795 109.347C32.6545 109.348 33.937 108.067 33.938 106.492L33.9395 104.226C33.9395 104.171 33.9734 104.124 34.026 104.106C36.2387 103.331 40.5284 101.458 44.3932 97.6209C49.327 92.7218 51.8316 86.396 51.8366 78.8196C51.8438 67.9772 46.4306 62.054 41.8883 58.9945Z" fill="#FA1239"/>
<path d="M26.6813 112.059L25.8271 112.058C21.7428 112.056 18.4178 115.376 18.415 119.461C18.4122 123.545 21.7328 126.87 25.8173 126.873L26.6716 126.874C30.7559 126.876 34.0809 123.556 34.0837 119.471C34.0862 115.387 30.7656 112.062 26.6813 112.059Z" fill="#FA1239"/>
<g opacity="0.3">
<path d="M51.4603 71.8929C51.3292 70.7887 51.0411 69.7316 50.6342 68.7165C48.6789 63.8378 44.0905 60.5131 38.8682 59.9194L13.6672 57.0533C16.4075 59.8542 19.9855 60.4119 23.7786 61.395C27.5716 62.3781 31.6552 63.8522 35.4875 64.6679C36.7173 64.9297 37.9879 65.2564 38.9444 66.0724C39.8777 66.8684 40.3984 68.0324 40.89 69.156C41.6186 70.8216 42.3475 72.4869 43.076 74.1526C43.9081 76.0543 45.0147 78.2017 47.2547 78.3243C48.1585 78.3739 49.0454 78.0353 49.7326 77.4462C51.3543 76.0552 51.697 73.8889 51.4603 71.8929Z" fill="black"/>
</g>
<path d="M51.1014 65.1423C50.9064 64.7993 47.0764 60.1159 45.1722 58.3004C43.9426 57.128 42.0899 56.3194 40.9283 55.8918C40.9283 55.8918 21.7522 48.9669 20.4211 48.291L11.8089 57.1029C14.8072 57.9368 35.1637 62.8377 40.1857 63.94C41.0641 64.9645 41.9479 65.8047 41.9479 65.8047L43.4075 69.2341C43.4075 69.2341 43.5759 70.4824 43.4705 71.8214C43.3655 73.16 44.4511 72.6381 44.4511 72.6381C44.4511 72.6381 44.4 73.4701 44.4706 74.6692C44.4712 74.6811 44.4722 74.693 44.4731 74.705C44.5443 75.6016 45.8327 75.7126 46.1067 74.8558L47.0961 71.764C47.0961 71.764 46.9667 74.5777 46.914 76.1436C46.9043 76.4276 46.9541 76.6612 47.0416 76.8534C47.4203 77.6835 48.6561 77.529 48.8665 76.6408L50.0255 71.7496L49.6505 68.7541L50.6227 71.4913C50.6227 71.4913 50.8914 72.9544 50.8371 75.0097C50.8155 75.8317 51.0926 76.1815 51.4331 76.3054C52.003 76.5126 52.6053 76.0587 52.6548 75.4539L53.0254 70.9216C53.0254 70.9216 51.2964 65.4855 51.1014 65.1423Z" fill="#FFBF9D"/>
<path d="M19.1836 47.9486C19.1918 47.9132 19.7366 48.0004 20.5941 48.2383C21.4521 48.4734 22.6149 48.8738 23.8726 49.3732C25.131 49.8732 26.2549 50.3557 27.0694 50.7015C27.8832 51.0491 28.3861 51.267 28.372 51.3062C28.3588 51.3426 27.8296 51.1924 26.9942 50.893C26.158 50.5952 25.02 50.1422 23.7654 49.6437C22.5111 49.1459 21.369 48.7183 20.5326 48.4346C19.6981 48.1483 19.1736 47.9913 19.1836 47.9486Z" fill="#FF9A6C"/>
</svg>
