<svg width="120" height="140" viewBox="0 0 120 140" fill="none" xmlns="http://www.w3.org/2000/svg">
<g opacity="0.38">
<path d="M67.8714 85.4812L49.1055 69.4384L49.3005 69.2107L67.8279 85.0492L90.2691 56.3461L99.1005 62.7379L117.135 38.9692L117.374 39.1504L99.162 63.1528L90.327 56.7586L67.8714 85.4812Z" fill="#032433"/>
<path d="M2.77389 111.256C2.77389 111.818 2.31879 112.273 1.75749 112.273C1.19619 112.273 0.741089 111.818 0.741089 111.256C0.741089 110.695 1.19619 110.24 1.75749 110.24C2.31879 110.24 2.77389 110.695 2.77389 111.256Z" fill="#032433"/>
<path d="M49.2032 71.3309C50.3113 71.3309 51.2096 70.4326 51.2096 69.3245C51.2096 68.2164 50.3113 67.3181 49.2032 67.3181C48.0951 67.3181 47.1968 68.2164 47.1968 69.3245C47.1968 70.4326 48.0951 71.3309 49.2032 71.3309Z" fill="#032433"/>
<path d="M1.86866 111.357L1.64636 111.155L23.5257 86.9885L28.4682 91.2869L48.1845 70.0748L48.4041 70.2791L28.4904 91.7039L23.5506 87.4079L1.86866 111.357Z" fill="#032433"/>
<path d="M117.348 40.8001C118.793 40.8001 119.964 39.6289 119.964 38.1841C119.964 36.7393 118.793 35.5681 117.348 35.5681C115.904 35.5681 114.732 36.7393 114.732 38.1841C114.732 39.6289 115.904 40.8001 117.348 40.8001Z" fill="#032433"/>
<path d="M118.626 37.289C118.658 37.3181 118.146 37.9325 117.482 38.6612C117.332 38.8235 117.188 38.9786 117.05 39.128L117.005 39.1769L116.953 39.1376C116.417 38.7308 116.049 38.4263 116.069 38.3996C116.088 38.3726 116.489 38.6312 117.039 39.02L116.942 39.0296C117.077 38.8781 117.219 38.7206 117.366 38.5559C118.03 37.8275 118.594 37.2602 118.626 37.289Z" fill="white"/>
</g>
<path d="M99.2938 74.5313C99.2938 74.5313 99.267 72.2553 99.171 72.2373L94.495 73.2777C94.4458 73.5741 93.8558 77.3069 93.957 77.6701L99.2174 79.1293C99.2174 79.1293 99.2938 74.6633 99.2938 74.5313Z" fill="#FFBE9D"/>
<path d="M99.2966 78.7827C99.3054 78.7779 99.313 78.7415 99.3198 78.6799C99.3738 78.1703 99.341 75.9467 99.0694 75.8519C98.7654 75.7455 98.0054 75.9195 97.953 76.2123C97.9006 76.5051 98.079 79.0079 98.079 79.0079C98.079 79.0079 98.1322 79.4019 98.7954 79.4975C99.2046 79.5567 99.2966 78.7827 99.2966 78.7827Z" fill="#FFBE9D"/>
<path d="M97.9636 79.5824C97.9724 79.5776 97.98 79.5412 97.9864 79.4796C98.0404 78.97 98.0076 76.7464 97.7364 76.6516C97.4324 76.5452 96.6724 76.7188 96.62 77.012C96.5676 77.3048 96.746 79.8076 96.746 79.8076C96.746 79.8076 96.7992 80.2016 97.4624 80.2976C97.8716 80.3564 97.9636 79.5824 97.9636 79.5824Z" fill="#FFBE9D"/>
<path d="M96.6595 79.9816C96.6683 79.9768 96.6759 79.9404 96.6827 79.8788C96.7367 79.3692 96.7039 77.1456 96.4327 77.0508C96.1287 76.9444 95.3687 77.118 95.3163 77.4112C95.2639 77.704 95.4423 80.2068 95.4423 80.2068C95.4423 80.2068 95.4955 80.6008 96.1587 80.6964C96.5675 80.7556 96.6595 79.9816 96.6595 79.9816Z" fill="#FFBE9D"/>
<path d="M95.3601 80.3569C95.3689 80.3521 95.3769 80.3157 95.3833 80.2541C95.4373 79.7445 95.4045 77.5209 95.1329 77.4261C94.8289 77.3197 94.0689 77.4933 94.0165 77.7865C93.9641 78.0793 94.1425 80.5821 94.1425 80.5821C94.1425 80.5821 94.1957 80.9761 94.8585 81.0717C95.2681 81.1309 95.3601 80.3569 95.3601 80.3569Z" fill="#FFBE9D"/>
<path d="M97.9431 76.8622C97.9815 76.8654 98.0279 77.3498 98.0471 77.9446C98.0663 78.5394 98.0507 79.0186 98.0127 79.0154C97.9743 79.0122 97.9279 78.5278 97.9087 77.933C97.8895 77.3382 97.9047 76.859 97.9431 76.8622Z" fill="#EB996E"/>
<path d="M96.6306 76.8551C96.669 76.8539 96.725 77.5427 96.755 78.3939C96.7854 79.2451 96.7782 79.9363 96.7398 79.9379C96.7014 79.9391 96.6454 79.2503 96.6154 78.3991C96.5854 77.5475 96.5922 76.8563 96.6306 76.8551Z" fill="#EB996E"/>
<g opacity="0.78">
<path d="M95.2986 76.965C95.3374 76.9638 95.393 77.6526 95.423 78.5038C95.4534 79.355 95.4462 80.0462 95.4078 80.0478C95.369 80.049 95.3134 79.3602 95.283 78.509C95.2534 77.6578 95.2602 76.9666 95.2986 76.965Z" fill="#EB996E"/>
</g>
<path d="M94.4629 73.3992C94.4629 73.3992 92.6121 77.6044 92.8825 77.8652C93.1529 78.1264 94.0213 78.5272 94.0213 78.5272L94.4629 73.3992Z" fill="#FFBE9D"/>
<path d="M84.2364 16.9993L82.8804 32.7257L75.004 32.0969C74.9552 31.1773 75.0208 27.6193 75.0208 27.6193C75.0208 27.6193 71.7436 27.1097 71.7032 23.8333C71.6836 22.2421 71.9112 18.9533 72.1504 15.9909C72.416 12.7041 75.2568 10.2325 78.5488 10.4249C81.9572 10.6237 84.5296 13.5973 84.2364 16.9993Z" fill="#FFBE9D"/>
<path d="M75.0114 27.5723C75.0114 27.5723 77.0822 27.7407 79.283 26.3583C79.283 26.3583 78.2734 28.7163 75.0038 28.4211L75.0114 27.5723Z" fill="#EB996E"/>
<path d="M73.4103 18.2871C73.4015 18.5343 73.6035 18.7455 73.8615 18.7591C74.1187 18.7731 74.3351 18.5843 74.3439 18.3371C74.3527 18.0899 74.1507 17.8787 73.8931 17.8647C73.6355 17.8511 73.4191 18.0399 73.4103 18.2871Z" fill="#263238"/>
<path d="M72.8324 17.6424C72.8904 17.7036 73.2449 17.4412 73.7485 17.4424C74.2513 17.4364 74.6208 17.6956 74.6756 17.634C74.7024 17.6068 74.6432 17.4964 74.4824 17.3792C74.324 17.2624 74.054 17.1492 73.7404 17.1504C73.4268 17.152 73.1628 17.2676 73.0112 17.3856C72.8564 17.5048 72.804 17.6152 72.8324 17.6424Z" fill="#263238"/>
<path d="M78.2454 18.2871C78.2366 18.5343 78.4386 18.7455 78.6966 18.7591C78.9538 18.7731 79.1702 18.5843 79.179 18.3371C79.1878 18.0899 78.9858 17.8787 78.7282 17.8647C78.4702 17.8511 78.2542 18.0399 78.2454 18.2871Z" fill="#263238"/>
<path d="M77.7855 17.736C77.8435 17.7972 78.1987 17.5348 78.7019 17.536C79.2047 17.53 79.5743 17.7892 79.6291 17.7276C79.6559 17.7004 79.5975 17.5904 79.4359 17.4732C79.2775 17.3564 79.0075 17.2432 78.6939 17.2444C78.3803 17.246 78.1163 17.3616 77.9647 17.4796C77.8099 17.5984 77.7571 17.7088 77.7855 17.736Z" fill="#263238"/>
<path d="M75.9608 21.4706C75.9632 21.4418 75.65 21.3878 75.1432 21.323C75.0144 21.3098 74.8928 21.2842 74.8712 21.1966C74.8408 21.1038 74.8948 20.965 74.9572 20.8154C75.078 20.5042 75.2048 20.1782 75.3376 19.8362C75.8656 18.4422 76.248 17.2962 76.1916 17.2754C76.1352 17.2546 75.6616 18.3674 75.1336 19.7618C75.0064 20.1054 74.8852 20.433 74.7696 20.7466C74.7212 20.8926 74.6372 21.0586 74.7028 21.2514C74.7376 21.3474 74.8316 21.417 74.9144 21.4394C74.9968 21.4646 75.0692 21.4658 75.1328 21.4698C75.6424 21.497 75.9588 21.4994 75.9608 21.4706Z" fill="#263238"/>
<path d="M77.4429 21.8188C77.3609 21.814 77.3601 22.3604 76.8921 22.7484C76.4253 23.1376 75.8425 23.0764 75.8381 23.1528C75.8305 23.1872 75.9681 23.2588 76.2137 23.2656C76.4549 23.274 76.8073 23.1964 77.0933 22.9592C77.3785 22.7212 77.5013 22.404 77.5201 22.1796C77.5413 21.9512 77.4801 21.8156 77.4429 21.8188Z" fill="#263238"/>
<path d="M77.6608 15.7631C77.7104 15.8999 78.2132 15.8351 78.804 15.9063C79.3964 15.9655 79.8728 16.1387 79.9508 16.0159C79.9856 15.9571 79.9028 15.8283 79.71 15.6959C79.5192 15.5635 79.2144 15.4379 78.86 15.3983C78.5052 15.3595 78.1804 15.4159 77.9656 15.5035C77.7484 15.5903 77.6392 15.6979 77.6608 15.7631Z" fill="#263238"/>
<path d="M73.0266 16.1848C73.115 16.2992 73.4622 16.1804 73.8794 16.1748C74.2962 16.1544 74.6498 16.2516 74.731 16.132C74.7666 16.074 74.711 15.9592 74.5566 15.8512C74.4046 15.7432 74.1502 15.6552 73.8634 15.6636C73.5766 15.6728 73.3286 15.7764 73.1834 15.8936C73.0358 16.0112 72.9874 16.1288 73.0266 16.1848Z" fill="#263238"/>
<path d="M86.5448 12.8043C86.564 12.1927 86.1288 11.5399 85.5184 11.5007C85.7732 10.9175 85.6088 10.1783 85.1304 9.75833C84.6524 9.33833 83.898 9.27033 83.3524 9.59873C83.1704 8.88993 82.56 8.30993 81.8428 8.16433C81.126 8.01873 80.3376 8.31433 79.8932 8.89553C79.4328 8.35353 78.6812 8.07513 77.9788 8.18633C77.2764 8.29753 76.6476 8.79433 76.3768 9.45193C75.7752 8.94833 74.9056 8.78593 74.1628 9.03793C73.6916 9.19793 73.2824 9.52193 73.002 9.93233C72.6364 9.81553 72.2612 9.72833 71.8808 9.75433C71.3916 9.78753 70.8876 10.0479 70.702 10.5019C70.5488 10.8767 70.7064 11.3615 71.0384 11.5587C70.4472 11.4159 69.7396 11.8351 69.6508 12.4527C69.5712 13.0067 70.0148 13.5423 70.5456 13.6699C70.3452 13.7739 70.1844 14.0051 70.2076 14.2391C70.2468 14.6367 70.6076 14.9263 70.9736 15.0871C71.9076 15.4975 72.9968 15.3663 73.964 15.0411C74.9308 14.7155 75.8276 14.2087 76.786 13.8595C77.7444 13.5099 79.35 12.8831 80.3124 13.2223C80.4492 13.2707 80.576 13.3447 80.698 13.4263C81.216 13.8383 81.5592 14.4315 81.6504 15.0875C81.6536 15.1107 81.6568 15.1327 81.6596 15.1535C81.7876 16.0879 81.7644 17.0387 81.9016 17.9719C82.0388 18.9051 82.362 19.8547 83.0524 20.4979C83.3364 20.7623 83.8384 20.9447 84.0716 20.6347C84.162 20.5147 84.1768 20.3559 84.1884 20.2063C84.3144 18.5787 84.6676 17.0819 84.8548 15.4895C85.0468 15.0823 85.4248 14.7479 85.7444 14.4103C86.164 13.9659 86.5256 13.4159 86.5448 12.8043Z" fill="#263238"/>
<path d="M76.7758 11.1577C76.7662 11.1605 76.7106 11.0077 76.731 10.7209C76.7534 10.4417 76.8714 10.0089 77.255 9.64526C77.6294 9.28566 78.3086 9.06926 78.9778 9.30526C79.3022 9.42126 79.6342 9.65366 79.7858 10.0301C79.8582 10.2185 79.871 10.4321 79.8102 10.6341C79.7522 10.8341 79.5986 11.0277 79.385 11.1049C79.1794 11.1821 78.9342 11.1705 78.749 11.0329C78.5602 10.8949 78.4934 10.6557 78.5154 10.4545C78.533 10.2497 78.6402 10.0581 78.7826 9.93126C78.9246 9.80086 79.093 9.72046 79.2594 9.66766C79.9322 9.46966 80.5898 9.64206 81.0046 9.95406C81.2142 10.1109 81.361 10.3117 81.4298 10.5113C81.4978 10.7117 81.4906 10.8981 81.4566 11.0397C81.3806 11.3289 81.219 11.4185 81.219 11.4097C81.2014 11.3973 81.333 11.2901 81.377 11.0237C81.3966 10.8933 81.3902 10.7249 81.3206 10.5525C81.2498 10.3813 81.1126 10.2081 80.9174 10.0737C80.5326 9.80406 79.9166 9.66246 79.3174 9.85126C79.0274 9.94246 78.741 10.1577 78.7178 10.4745C78.7034 10.6261 78.7542 10.7837 78.8718 10.8673C78.9862 10.9545 79.1634 10.9673 79.3102 10.9113C79.615 10.8029 79.7118 10.3909 79.595 10.1049C79.479 9.80486 79.1974 9.59246 78.9114 9.48686C78.323 9.26726 77.7022 9.44406 77.353 9.75606C76.9918 10.0729 76.8558 10.4693 76.811 10.7321C76.7678 11.0009 76.7942 11.1557 76.7758 11.1577Z" fill="#455A64"/>
<path d="M80.7587 9.06734C80.7579 9.05374 80.8623 9.03014 81.0547 9.01134C81.2467 8.99454 81.5295 8.97654 81.8783 9.03254C82.2219 9.08894 82.6479 9.23734 82.9807 9.59374C83.3191 9.93334 83.4759 10.5729 83.1551 11.0769C83.1043 11.1549 83.0411 11.2237 82.9759 11.2809L82.8699 11.1053C83.1439 10.9981 83.4391 11.0673 83.6515 11.2077C83.8691 11.3461 84.0159 11.5741 84.0683 11.7989C84.1751 12.2585 84.0059 12.6681 83.8139 12.9321C83.6167 13.2009 83.4007 13.3589 83.2531 13.4589C83.1027 13.5581 83.0119 13.5977 83.0047 13.5869C82.9967 13.5745 83.0731 13.5125 83.2055 13.3969C83.3359 13.2805 83.5291 13.1101 83.6959 12.8517C83.8591 12.6005 83.9871 12.2265 83.8867 11.8461C83.8367 11.6589 83.7203 11.4881 83.5427 11.3769C83.3691 11.2657 83.1415 11.2205 82.9471 11.2981L82.4091 11.5133L82.8415 11.1221C82.8915 11.0769 82.9407 11.0237 82.9807 10.9625C83.1063 10.7677 83.1455 10.5237 83.1147 10.3021C83.0847 10.0789 82.9779 9.88054 82.8383 9.72174C82.5543 9.40174 82.1719 9.24694 81.8507 9.17654C81.1927 9.05014 80.7579 9.10934 80.7587 9.06734Z" fill="#455A64"/>
<path d="M85.5021 12.5348C85.5273 12.5288 85.5857 12.6432 85.5857 12.8468C85.5877 13.0464 85.5137 13.3372 85.3009 13.5752C85.0873 13.8124 84.8057 13.9172 84.6073 13.9368C84.4053 13.9584 84.2853 13.9124 84.2881 13.8868C84.2825 13.8296 84.7825 13.8396 85.1457 13.436C85.5085 13.0316 85.4449 12.5356 85.5021 12.5348Z" fill="#455A64"/>
<path d="M71.5051 10.8242C71.4987 10.8174 71.5911 10.7074 71.8111 10.5746C72.0307 10.4474 72.3907 10.305 72.8563 10.3058C73.3131 10.307 73.8939 10.4566 74.3391 10.9078C74.5523 11.1294 74.7455 11.4394 74.7275 11.8114C74.7055 12.1826 74.3855 12.5458 73.9551 12.5234C73.7415 12.5054 73.5603 12.349 73.4871 12.169C73.4099 11.989 73.4067 11.7954 73.4531 11.619C73.5563 11.2566 73.8619 11.0294 74.1611 10.931C74.4655 10.8282 74.7855 10.8538 75.0455 10.9478C75.3091 11.0394 75.5231 11.1882 75.6947 11.3422C76.0367 11.6574 76.2175 11.985 76.3395 12.2042C76.4579 12.427 76.5103 12.5562 76.4983 12.5626C76.4851 12.5702 76.4083 12.4534 76.2699 12.2458C76.1291 12.0422 75.9307 11.7342 75.5983 11.4534C75.2771 11.183 74.7535 10.9246 74.2231 11.1126C73.9687 11.199 73.7219 11.401 73.6503 11.6714C73.5711 11.937 73.6959 12.2946 73.9755 12.3158C74.2467 12.3398 74.5159 12.0642 74.5239 11.7978C74.5427 11.5142 74.3887 11.241 74.2003 11.0402C73.8103 10.6294 73.2803 10.4714 72.8527 10.453C72.4171 10.4338 72.0707 10.5458 71.8487 10.6462C71.6267 10.7522 71.5171 10.8394 71.5051 10.8242Z" fill="#455A64"/>
<path d="M83.1279 18.4824C83.1839 18.458 85.3791 17.8164 85.3075 20.0568C85.2359 22.2968 83.0019 21.7628 82.9999 21.6984C82.9983 21.634 83.1279 18.4824 83.1279 18.4824Z" fill="#FFBE9D"/>
<path d="M83.7063 20.8718C83.7163 20.865 83.7447 20.9002 83.8095 20.9326C83.8727 20.9642 83.9827 20.9878 84.1011 20.9478C84.3407 20.8686 84.5519 20.499 84.5755 20.0958C84.5879 19.8922 84.5511 19.6966 84.4843 19.5334C84.4211 19.3674 84.3187 19.2494 84.2003 19.2246C84.0827 19.1934 83.9959 19.2622 83.9667 19.3242C83.9347 19.3858 83.9475 19.431 83.9355 19.4346C83.9291 19.4398 83.8887 19.3954 83.9095 19.3034C83.9203 19.2594 83.9479 19.2074 84.0023 19.1658C84.0575 19.1238 84.1371 19.1042 84.2199 19.1158C84.3923 19.1334 84.5427 19.297 84.6163 19.4762C84.6995 19.6562 84.7455 19.8762 84.7315 20.105C84.7027 20.5558 84.4579 20.971 84.1311 21.0542C83.9723 21.0902 83.8423 21.0386 83.7763 20.9834C83.7087 20.9258 83.6983 20.8754 83.7063 20.8718Z" fill="#EB996E"/>
<path d="M69.2309 127.362L70.6861 134.064C70.6861 134.064 64.3621 137.794 64.5105 139.059L77.6077 136.704L75.7689 126.168L69.2309 127.362Z" fill="#263238"/>
<path d="M77.6085 136.704L77.3817 135.65L64.9093 138.302C64.9093 138.302 64.3717 138.66 64.5117 139.059L77.6085 136.704Z" fill="#455A64"/>
<path d="M84.1248 128.099L84.3412 134.954C84.3412 134.954 77.446 137.476 77.3624 138.747L90.6692 138.806L90.7708 128.11L84.1248 128.099Z" fill="#263238"/>
<g opacity="0.6">
<path d="M90.6703 138.805L90.6383 137.727L77.8919 138.074C77.8919 138.074 77.2983 138.329 77.3635 138.747L90.6703 138.805Z" fill="#455A64"/>
</g>
<path d="M68.5154 133.111C68.5154 133.111 61.6942 99.6485 61.6886 98.9785L73.8734 92.5361L78.5922 131.807L68.5154 133.111Z" fill="#263238"/>
<path d="M83.86 134.232L74.4376 76.2348V63.7256L87.3104 64.9204C87.4728 65.4076 91.6872 134.308 91.6872 134.308L90.3588 134.232H83.86Z" fill="#263238"/>
<path d="M67.0302 62.8408L61.6886 98.9784L73.6306 96.082L78.4982 64.0156L67.0302 62.8408Z" fill="#263238"/>
<path d="M78.0782 65.9043C78.0782 65.9043 78.0798 65.9647 78.0914 66.0815C78.1046 66.2047 78.1227 66.3767 78.1463 66.5999C78.1991 67.0619 78.2754 67.7319 78.3734 68.5915C78.5774 70.3203 78.8846 72.8203 79.2866 75.9067C80.0834 82.0807 81.293 90.5943 82.5922 100.002C83.2398 104.707 83.8342 109.193 84.3418 113.277C84.473 114.298 84.577 115.295 84.7214 116.262C84.869 117.225 85.0127 118.161 85.1515 119.065C85.4255 120.874 85.681 122.559 85.9142 124.098C86.3766 127.176 86.7418 129.667 86.9814 131.391C87.101 132.253 87.1894 132.923 87.2422 133.378C87.2686 133.605 87.2862 133.779 87.2938 133.896C87.2974 133.954 87.299 133.999 87.2954 134.027C87.2918 134.065 87.2743 134.025 87.2755 134.032C87.2755 134.032 87.2762 134.036 87.2802 134.043C87.2842 134.057 87.3054 134.046 87.3042 134.029C87.3106 133.999 87.3118 133.954 87.311 133.895C87.309 133.777 87.2966 133.603 87.2758 133.375C87.2338 132.918 87.1554 132.247 87.0454 131.383C86.8254 129.656 86.4774 127.161 86.0298 124.081C85.8026 122.541 85.5538 120.855 85.2866 119.045C85.1506 118.14 85.0098 117.204 84.8646 116.24C84.7234 115.278 84.621 114.278 84.4922 113.258C83.993 109.173 83.4026 104.686 82.755 99.9799C81.4558 90.5715 80.2278 82.0611 79.4018 75.8919C78.995 72.8111 78.6658 70.3159 78.437 68.5839C78.3258 67.7259 78.2394 67.0571 78.1794 66.5963C78.149 66.3739 78.1255 66.2027 78.1083 66.0799C78.0911 65.9635 78.0782 65.9043 78.0782 65.9043Z" fill="#455A64"/>
<path d="M70.895 132.8C70.895 132.8 70.8902 132.741 70.8726 132.628C70.8534 132.509 70.8262 132.342 70.791 132.127C70.7146 131.68 70.6042 131.033 70.4618 130.202C70.1678 128.525 69.7446 126.11 69.2218 123.128C68.1582 117.152 66.6906 108.907 65.0694 99.7999C64.951 99.2391 64.9098 98.6707 64.969 98.1099C65.0406 97.5511 65.1338 96.9855 65.2162 96.4303C65.3886 95.3171 65.5582 94.2199 65.725 93.1423C66.0646 90.9875 66.399 88.9099 66.7294 86.9331C67.3866 82.9783 68.0214 79.4247 68.5886 76.4467C69.157 73.4691 69.655 71.0667 70.0342 69.4143C70.2134 68.5859 70.3758 67.9479 70.4762 67.5131C70.5254 67.3007 70.5634 67.1359 70.5906 67.0183C70.6154 66.9067 70.6242 66.8483 70.6242 66.8483C70.6242 66.8483 70.6046 66.9039 70.5742 67.0143C70.5434 67.1311 70.4998 67.2943 70.4438 67.5051C70.333 67.9375 70.1606 68.5735 69.9718 69.3999C69.5734 71.0487 69.0578 73.4483 68.4746 76.4243C67.8926 79.4007 67.2458 82.9535 66.5802 86.9079C66.2458 88.8847 65.9078 90.9623 65.5662 93.1171C65.3986 94.1951 65.2278 95.2923 65.055 96.4059C64.9722 96.9647 64.8798 97.5195 64.8062 98.0939C64.7446 98.6703 64.7882 99.2627 64.909 99.8331C66.5482 108.935 68.0322 117.177 69.1078 123.15C69.6522 126.128 70.093 128.539 70.399 130.214C70.5542 131.043 70.675 131.688 70.7582 132.134C70.8002 132.348 70.8326 132.514 70.8558 132.632C70.8794 132.743 70.895 132.8 70.895 132.8Z" fill="#455A64"/>
<path d="M74.4372 75.8257C74.3924 75.8329 74.9492 79.5797 75.6804 84.1933C76.412 88.8089 77.0408 92.5433 77.0856 92.5361C77.1304 92.5289 76.5736 88.7829 75.8424 84.1677C75.1112 79.5537 74.482 75.8185 74.4372 75.8257Z" fill="#455A64"/>
<path d="M83.747 134.128C83.7462 134.139 83.8562 134.158 84.0554 134.181C84.255 134.205 84.5442 134.233 84.9022 134.26C85.6182 134.316 86.6093 134.369 87.7049 134.388C88.8009 134.406 89.7938 134.386 90.511 134.353C90.8698 134.337 91.1598 134.32 91.3598 134.302C91.5598 134.285 91.6702 134.27 91.6698 134.259C91.669 134.235 91.225 134.235 90.5078 134.238C89.791 134.24 88.8005 134.242 87.7069 134.224C86.6137 134.206 85.6246 134.172 84.9078 134.145C84.1926 134.118 83.7486 134.104 83.747 134.128Z" fill="#455A64"/>
<path d="M68.5165 133.11C68.5181 133.122 68.6605 133.114 68.9165 133.09C69.2053 133.06 69.5681 133.021 69.9997 132.975C70.9133 132.871 72.1737 132.716 73.5649 132.535C74.9565 132.354 76.2149 132.182 77.1249 132.05C77.5537 131.985 77.9145 131.93 78.2013 131.886C78.4549 131.844 78.5945 131.816 78.5933 131.806C78.5921 131.794 78.4493 131.8 78.1929 131.822C77.9365 131.845 77.5665 131.883 77.1097 131.935C76.1957 132.038 74.9349 132.192 73.5437 132.372C72.1525 132.553 70.8945 132.726 69.9849 132.86C69.5561 132.926 69.1957 132.982 68.9085 133.027C68.6545 133.07 68.5149 133.099 68.5165 133.11Z" fill="#455A64"/>
<path d="M8.00052 6.69676C8.00052 6.69676 13.2889 4.63316 16.9001 5.66476C20.5117 6.69676 21.5873 8.94156 24.3165 8.74956C26.4681 8.59796 27.9925 7.66676 28.7661 5.37596C29.5401 3.08516 29.5441 0.233156 36.8921 0.505556C42.5173 0.713956 43.0833 1.53756 43.0833 1.53756L43.6865 16.4996C40.5029 15.9956 37.2493 15.634 33.7573 16.126C33.7573 16.126 30.8713 16.6464 30.4813 19.7172C30.0753 22.9116 26.7889 24.156 24.8209 24.156C22.0025 24.156 20.5785 22.2532 18.1897 21.7032C14.4449 20.8408 8.00012 23.4644 8.00012 23.4644L8.00052 6.69676Z" fill="#FFAE00"/>
<path d="M45.9788 37.9797L42.7472 37.7529L42.83 42.8237L46.2988 45.3589L46.6488 45.2273L46.8488 39.4609L45.9788 37.9797Z" fill="#EB996E"/>
<path d="M28.2103 18.2272C28.1527 18.2284 28.0583 15.748 27.9987 12.688C27.9395 9.62685 27.9379 7.14524 27.9955 7.14404C28.0531 7.14284 28.1475 9.62284 28.2071 12.684C28.2663 15.744 28.2679 18.226 28.2103 18.2272Z" fill="#263238"/>
<path d="M22.2916 11.7424C22.3492 11.7424 22.3956 14.3036 22.3956 17.4624C22.3956 20.6224 22.3488 23.1832 22.2916 23.1832C22.234 23.1832 22.1876 20.6224 22.1876 17.4624C22.1872 14.3036 22.234 11.7424 22.2916 11.7424Z" fill="#263238"/>
<g opacity="0.2">
<path d="M22.2908 20.6479C22.2496 21.7967 22.2908 23.3199 22.2908 23.3199C23.1292 23.8811 24.8632 24.2203 25.8264 23.9195C25.8356 23.9167 25.8448 23.9139 25.8536 23.9111C27.1528 23.5007 28.1348 22.4203 28.4544 21.0959C28.5736 20.6023 28.6372 20.1259 28.6064 19.7647C28.2856 15.9611 27.8732 11.2211 27.9952 7.40588C27.9952 7.40588 25.7048 9.60988 22.1476 8.66548L22.2908 20.6479Z" fill="black"/>
</g>
<g opacity="0.6">
<path d="M21.7594 9.21782C21.7514 9.22982 21.577 9.12862 21.2682 8.93702C20.9258 8.72502 20.487 8.45302 19.9614 8.12742C18.8554 7.46902 17.279 6.54742 15.3418 6.17862C13.4042 5.80662 11.5926 6.08782 10.3698 6.47462C9.13696 6.86422 8.45016 7.30062 8.43096 7.26262C8.42456 7.25142 8.59136 7.13822 8.90816 6.95702C9.22856 6.78262 9.70456 6.54822 10.3242 6.33502C11.5526 5.90662 13.4006 5.59422 15.381 5.97462C17.3646 6.35342 18.9498 7.31102 20.0398 8.00302C20.5878 8.35542 21.0186 8.65822 21.3138 8.87022C21.6086 9.08222 21.7674 9.20622 21.7594 9.21782Z" fill="white"/>
</g>
<g opacity="0.6">
<path d="M34.7577 1.57836C34.7545 1.61436 34.3597 1.56476 33.7349 1.64156C33.1149 1.71436 32.2569 1.95116 31.4725 2.49716C30.6881 3.04356 30.1681 3.76556 29.8841 4.32196C29.5949 4.88076 29.5045 5.26836 29.4697 5.25876C29.4489 5.25596 29.4881 4.85156 29.7517 4.25756C30.0093 3.66836 30.5325 2.89796 31.3537 2.32596C32.1749 1.75476 33.0789 1.53196 33.7209 1.49476C34.3693 1.45436 34.7625 1.55756 34.7577 1.57836Z" fill="white"/>
</g>
<path d="M43.3669 0L47.6349 118.578L46.8969 118.752L42.5157 0.0556015L43.3669 0Z" fill="#263238"/>
<path d="M51.2601 44.6928L49.6557 38.9356L43.9685 34.9556C43.9685 34.9556 43.3029 35.3516 44.3221 36.8568L45.5945 38.6164C45.5945 38.6164 45.5561 40.9084 46.6465 42.2512L46.2981 45.358L51.2601 44.6928Z" fill="#FFBE9D"/>
<path d="M42.7314 38.7993C43.4074 39.2705 43.879 39.6677 44.3474 40.3033C44.4442 40.4345 44.461 40.6841 44.4662 40.8473C44.4714 41.0105 44.3942 41.1861 44.245 41.2517C44.1274 41.3037 43.987 41.2789 43.8738 41.2173C43.7606 41.1561 43.6694 41.0621 43.5798 40.9697C43.2134 40.5917 42.8474 40.2137 42.481 39.8357C42.3406 39.6909 42.117 39.4153 42.1034 39.2141C42.0846 38.9293 42.4118 38.6217 42.7314 38.7993Z" fill="#FFBE9D"/>
<path d="M42.7233 40.2708C43.3993 40.742 43.8709 41.1392 44.3393 41.7748C44.4361 41.9064 44.4529 42.1556 44.4581 42.3188C44.4633 42.482 44.3861 42.6576 44.2369 42.7236C44.1193 42.7756 43.9789 42.7508 43.8661 42.6892C43.7529 42.628 43.6617 42.534 43.5721 42.4416C43.2057 42.0636 42.8397 41.6856 42.4733 41.3076C42.3329 41.1628 42.1093 40.8872 42.0957 40.686C42.0765 40.4008 42.4037 40.0932 42.7233 40.2708Z" fill="#FFBE9D"/>
<path d="M42.9606 41.8676C43.6366 42.3388 44.1082 42.736 44.5766 43.3716C44.6734 43.5028 44.6902 43.7524 44.6954 43.9156C44.7006 44.0788 44.6234 44.2544 44.4742 44.3204C44.3566 44.3724 44.2162 44.3476 44.1034 44.286C43.9902 44.2248 43.899 44.1308 43.8094 44.0384C43.443 43.6604 43.077 43.2824 42.7106 42.9044C42.5702 42.7596 42.3466 42.484 42.333 42.2828C42.3134 41.9976 42.641 41.69 42.9606 41.8676Z" fill="#FFBE9D"/>
<path d="M42.9883 37.7891C43.2419 37.9231 43.4691 38.0451 43.6523 38.2659C43.8355 38.4867 43.9235 38.8123 43.7891 39.0659C43.7367 39.1651 43.6439 39.2515 43.5323 39.2619C43.4547 39.2691 43.3791 39.2391 43.3083 39.2063C43.1539 39.1343 43.0083 39.0435 42.8755 38.9375C42.7351 38.8255 42.6283 38.6891 42.5083 38.5555C42.3843 38.4171 42.2987 38.2835 42.4039 38.0463C42.4891 37.8527 42.5739 37.7395 42.9883 37.7891Z" fill="#FFBE9D"/>
<path d="M50.9286 41.8149L59.5634 49.5741L56.7558 55.7653L46.8478 45.1933L50.9286 41.8149Z" fill="#FFBE9D"/>
<path d="M50.5829 41.4795L58.2665 47.3219C58.2665 47.3219 65.4149 35.1307 66.0465 34.3727C66.6781 33.6147 68.2837 32.8035 68.2837 32.8035L67.3961 48.4343C67.3961 48.4343 63.5297 58.3015 58.2237 57.7659C54.1605 57.3555 47.1377 46.6359 47.1377 46.6359L50.5829 41.4795Z" fill="#FA1239"/>
<g opacity="0.2">
<path d="M58.1235 47.1379C57.0555 48.7743 56.7623 50.8939 57.3467 52.7587C57.4063 52.9491 57.4863 53.1515 57.6575 53.2539C57.9147 53.4071 58.2659 53.2499 58.4267 52.9975C58.5875 52.7451 58.6087 52.4315 58.6251 52.1327C58.7743 52.4099 58.9327 52.6983 59.1927 52.8759C59.4527 53.0535 59.8459 53.0791 60.0575 52.8459C60.3127 52.5647 60.1723 52.1203 60.0191 51.7727C59.3643 50.2895 58.7099 48.8063 58.0551 47.3235" fill="black"/>
</g>
<path d="M52.516 43.2302C52.5644 43.261 51.7768 44.581 50.7572 46.1774C49.7372 47.7746 48.8712 49.0438 48.8224 49.0126C48.774 48.9818 49.5612 47.6622 50.5816 46.0654C51.6016 44.4686 52.4676 43.1994 52.516 43.2302Z" fill="#263238"/>
<path d="M50.5594 43.0164C50.5386 42.9988 50.6374 42.8968 50.8134 42.9628C50.8926 42.9952 50.9894 43.0684 51.0186 43.2032C51.0502 43.3416 50.9598 43.4944 50.8326 43.5572C50.709 43.6264 50.5314 43.614 50.4358 43.5096C50.341 43.4088 50.3358 43.288 50.3542 43.2044C50.3998 43.0224 50.5398 42.9984 50.5426 43.0256C50.557 43.052 50.4934 43.1104 50.5006 43.222C50.5042 43.3392 50.5978 43.4468 50.7362 43.3732C50.875 43.3012 50.8398 43.1628 50.7454 43.0936C50.6574 43.0236 50.573 43.0432 50.5594 43.0164Z" fill="#263238"/>
<path d="M58.276 51.0256C58.2268 51.0436 57.94 50.2324 57.9268 49.1832C57.9072 48.1336 58.1688 47.3144 58.2188 47.3308C58.28 47.3444 58.1156 48.162 58.1352 49.18C58.1472 50.1976 58.3368 51.0104 58.276 51.0256Z" fill="#263238"/>
<path d="M59.7644 50.9731C59.7184 51.0023 59.2144 50.2591 58.7796 49.2455C58.3412 48.2331 58.1472 47.3567 58.2 47.3431C58.258 47.3263 58.5388 48.1651 58.9708 49.1631C59.3992 50.1623 59.8164 50.9423 59.7644 50.9731Z" fill="#263238"/>
<path d="M84.3574 31.3188L83.1954 29.022H74.7946L73.4738 31.6296L68.2834 32.804L66.0474 66.2756C66.0334 66.7 66.1362 67.1196 66.3442 67.4896L86.7534 68.2736L87.5842 68.6132C88.3166 68.162 87.8594 66.2968 87.8686 65.4208L88.1302 48.8436L92.1678 35.598L84.3574 31.3188Z" fill="#FA1239"/>
<g opacity="0.2">
<path d="M75.6495 32.4792C76.1443 31.9844 76.6391 31.4896 77.1343 30.9948C77.6903 32.336 78.2463 33.6772 78.8027 35.0184C80.7215 33.89 82.5507 32.6096 84.2679 31.1928C82.3835 31.7976 80.4987 32.4024 78.6143 33.0068C78.1367 31.7392 77.6591 30.4716 77.1815 29.204C76.8463 30.3544 76.3679 31.4628 75.7611 32.4956" fill="black"/>
</g>
<path d="M99.3306 73.2891L93.8302 73.5739L93.8182 57.7875L88.129 48.8439L92.1666 35.5983C92.999 35.9259 99.2658 51.6631 100.862 55.9359C101.092 56.5531 101.193 57.2083 101.159 57.8659L99.3306 73.2891Z" fill="#FA1239"/>
<path d="M68.2823 39.7128C68.3395 39.7184 68.0667 42.9556 67.6731 46.942C67.2791 50.93 66.9135 54.1572 66.8563 54.1512C66.7991 54.1456 67.0719 50.9092 67.4659 46.9216C67.8595 42.9348 68.2251 39.7072 68.2823 39.7128Z" fill="#263238"/>
<path d="M77.1774 29.2151C77.2306 29.2371 76.7826 30.442 76.177 31.9056C76.139 31.9968 76.1014 32.0871 76.0642 32.1763C76.0246 32.2671 75.9834 32.3712 75.8814 32.4552C75.7758 32.5484 75.6038 32.5316 75.517 32.4788C75.4202 32.4296 75.3562 32.3788 75.2826 32.3324C75.0166 32.1524 74.765 31.9815 74.5274 31.8207C74.1006 31.5243 73.8446 31.3292 73.8602 31.3048C73.8758 31.2808 74.1598 31.432 74.607 31.6968C74.8522 31.846 75.1118 32.0039 75.3862 32.1707C75.5358 32.2639 75.6862 32.3744 75.7546 32.2952C75.8446 32.22 75.9046 32.0003 75.9842 31.8259C76.5902 30.3619 77.1242 29.1931 77.1774 29.2151Z" fill="#263238"/>
<path d="M83.8581 31.265C83.8673 31.2922 83.3765 31.4878 82.5753 31.7818C81.7741 32.0758 80.6629 32.4686 79.4313 32.8898C79.2009 32.9682 78.9749 33.045 78.7585 33.119L78.6669 33.1502L78.6301 33.0614C78.1961 32.0126 77.8221 31.0842 77.5629 30.415C77.3033 29.7462 77.1581 29.337 77.1825 29.3266C77.2065 29.3166 77.3957 29.7074 77.6889 30.3622C77.9821 31.017 78.3797 31.9358 78.8205 32.9814L78.6921 32.9238C78.9081 32.8494 79.1341 32.7718 79.3641 32.6926C80.5957 32.271 81.7145 31.9006 82.5277 31.6422C83.3409 31.3842 83.8489 31.2378 83.8581 31.265Z" fill="#263238"/>
<path d="M91.3036 36.071C91.3196 36.1322 90.1368 36.4526 88.7656 37.0666C87.3904 37.6738 86.3608 38.3374 86.326 38.2846C86.3112 38.2622 86.55 38.067 86.968 37.7966C87.3852 37.5258 87.986 37.1862 88.6812 36.8762C89.3764 36.5678 90.0308 36.349 90.5116 36.2206C90.992 36.0918 91.2968 36.045 91.3036 36.071Z" fill="#263238"/>
<path d="M77.1771 29.2152C77.1807 29.2152 77.1847 29.2492 77.1887 29.3152C77.1923 29.3936 77.1967 29.4904 77.2019 29.6092C77.2099 29.8676 77.2243 30.2488 77.2299 30.74C77.2407 31.722 77.2347 33.144 77.1659 34.8992C77.0399 38.4104 76.6015 43.248 75.9011 48.5592C75.5603 51.2172 75.1851 53.7416 74.9323 56.046C74.6771 58.35 74.5651 60.4364 74.5995 62.188C74.6239 63.94 74.7831 65.3524 74.9263 66.3216C74.9859 66.8084 75.0639 67.1812 75.1011 67.4372C75.1191 67.5548 75.1335 67.6504 75.1455 67.728C75.1543 67.7936 75.1571 67.8276 75.1535 67.8284C75.1499 67.8292 75.1403 67.7964 75.1247 67.732C75.1075 67.6552 75.0863 67.5612 75.0603 67.4452C75.0099 67.1916 74.9187 66.8204 74.8463 66.3344C74.6783 65.3668 74.4959 63.9508 74.4527 62.1916C74.3995 60.4328 74.4967 58.3364 74.7419 56.026C74.9847 53.7148 75.3543 51.1888 75.6947 48.5328C76.3947 43.2244 76.8555 38.3972 77.0191 34.8928C77.1063 33.1408 77.1347 31.7216 77.1491 30.7404C77.1539 30.2628 77.1575 29.8856 77.1603 29.6104C77.1631 29.4916 77.1655 29.3948 77.1675 29.3164C77.1703 29.2492 77.1735 29.2152 77.1771 29.2152Z" fill="#263238"/>
<path d="M99.6295 70.8726C99.6267 70.9302 98.3211 70.9126 96.7143 70.8338C95.1067 70.755 93.8059 70.6446 93.8087 70.587C93.8115 70.5294 95.1167 70.547 96.7243 70.6258C98.3315 70.7046 99.6323 70.815 99.6295 70.8726Z" fill="#263238"/>
<path d="M94.7496 71.4876C94.768 71.5108 94.74 71.5656 94.7668 71.6368C94.798 71.7148 94.8548 71.752 94.9284 71.6944C95 71.6344 94.9756 71.5712 94.9064 71.524C94.8428 71.4828 94.7832 71.4984 94.7644 71.4756C94.7416 71.4608 94.8004 71.362 94.9496 71.3832C95.0172 71.3952 95.1056 71.4364 95.1516 71.5412C95.2 71.6484 95.1508 71.7872 95.0596 71.8564C94.9724 71.9308 94.8264 71.9496 94.732 71.8796C94.6392 71.8128 94.618 71.7172 94.6204 71.6488C94.6308 71.4988 94.7396 71.462 94.7496 71.4876Z" fill="#263238"/>
<g opacity="0.2">
<path d="M88.2102 48.8015C87.6122 47.7215 87.0146 46.6415 86.4166 45.5615C85.7022 51.2587 86.1062 57.0943 87.5998 62.6387C87.7842 58.0495 87.9686 53.4603 88.153 48.8711" fill="black"/>
</g>
<g opacity="0.2">
<path d="M63.173 39.0252C64.2314 40.6212 66.329 41.2248 68.137 40.5928C68.3714 41.0016 68.8514 41.2244 69.3218 41.2548C69.7922 41.2856 70.2574 41.1508 70.6998 40.988C74.055 39.7532 76.6774 36.7024 77.3942 33.1996C74.8066 34.1084 73.0622 36.6184 70.5238 37.6568C68.4722 38.496 66.185 38.2748 64.3566 37.022L63.173 39.0252Z" fill="black"/>
</g>
<path d="M79.1058 42.8519C79.099 42.8447 79.2118 42.8379 79.4298 42.8303C79.6798 42.8239 79.9978 42.8159 80.3862 42.8063C81.2154 42.7895 82.415 42.7699 83.8574 42.7611L83.955 42.7603L83.9478 42.8587C83.855 44.1215 83.7474 45.5855 83.6326 47.1455L83.6286 47.2027L83.5774 47.2295C83.5102 47.2651 83.437 47.3035 83.3642 47.3423C82.5562 47.7667 81.7762 48.1767 81.0406 48.5635L80.9818 48.5943L80.931 48.5527C80.1474 47.9119 79.4218 47.3187 78.7742 46.7895L78.7394 46.7607L78.743 46.7174C78.8442 45.5582 78.9282 44.5919 78.9902 43.8779C79.0214 43.5675 79.047 43.3127 79.0674 43.1087C79.0874 42.9347 79.1002 42.8459 79.1058 42.8519C79.1114 42.8579 79.1106 42.9595 79.1042 43.1439C79.095 43.3535 79.0834 43.6155 79.0694 43.9343C79.0298 44.6371 78.9766 45.5883 78.9126 46.7295L78.8814 46.6579C79.5346 47.1799 80.2666 47.7655 81.0574 48.3975L80.9482 48.3867C81.6826 47.9979 82.4614 47.5855 83.2678 47.1583C83.341 47.1199 83.4138 47.0811 83.481 47.0459L83.4258 47.1299C83.5502 45.5707 83.667 44.1075 83.7674 42.8451L83.8578 42.9427C82.4538 42.9339 81.277 42.9143 80.4422 42.8975C80.0458 42.8879 79.7214 42.8798 79.4662 42.8734C79.2382 42.8658 79.1126 42.8591 79.1058 42.8519Z" fill="#263238"/>
<path d="M83.7318 44.7735C83.7306 44.8311 82.6646 44.8579 81.351 44.8331C80.037 44.8087 78.9726 44.7419 78.9738 44.6847C78.975 44.6271 80.0406 44.6003 81.355 44.6251C82.6686 44.6495 83.733 44.7159 83.7318 44.7735Z" fill="#FAFAFA"/>
<path d="M83.6946 45.5984C83.6934 45.656 82.6274 45.6828 81.3138 45.658C79.9998 45.6336 78.9354 45.5668 78.9366 45.5096C78.9378 45.452 80.0034 45.4256 81.3178 45.45C82.631 45.4744 83.6954 45.5412 83.6946 45.5984Z" fill="#FAFAFA"/>
<path d="M69.0144 67.6561C69.0104 67.7133 68.5836 67.6356 68.3088 67.222C68.0288 66.8112 68.1176 66.3869 68.1724 66.4049C68.2324 66.4077 68.2444 66.7637 68.4816 67.1061C68.7092 67.4541 69.0348 67.5997 69.0144 67.6561Z" fill="#263238"/>
<path d="M69.5474 67.435C69.5118 67.4754 69.1246 67.1066 68.971 66.4882C68.8118 65.871 68.9774 65.3626 69.0278 65.381C69.0886 65.3914 69.0258 65.8738 69.1726 66.437C69.3114 67.0022 69.5958 67.397 69.5474 67.435Z" fill="#263238"/>
<path d="M84.9524 65.1339C85.0036 65.1255 85.0536 65.9375 84.6336 66.8187C84.2224 67.7043 83.5652 68.1839 83.5388 68.1387C83.494 68.0931 84.0572 67.5691 84.4452 66.7299C84.844 65.8963 84.8888 65.1287 84.9524 65.1339Z" fill="#263238"/>
<path d="M76.5615 30.9209H77.6655L78.1379 31.7429L77.6747 33.0217L76.5755 32.8969L76.1447 31.9713L76.5615 30.9209Z" fill="#455A64"/>
<path d="M76.5764 32.8968C76.5764 32.8968 69.9348 37.1744 66.5444 35.4656C63.1824 33.7708 58.9548 31.6636 55.1556 32.1668C51.3568 32.67 48.824 34.1796 48.824 34.1796L47.6368 37.0636L50.7036 38.1704C50.7036 38.1704 55.1756 36.0104 58.4268 36.5904C60.7008 36.996 65.0648 39.31 68.0052 39.0912C70.9456 38.8724 75.0044 36.778 77.6756 33.022L76.5764 32.8968Z" fill="#455A64"/>
<path d="M77.3798 33.3721C77.3686 33.3921 77.1742 33.3041 76.9462 33.1757C76.7182 33.0473 76.5422 32.9269 76.5534 32.9069C76.5646 32.8869 76.7586 32.9749 76.987 33.1033C77.215 33.2317 77.391 33.3521 77.3798 33.3721Z" fill="#263238"/>
<path d="M78.035 31.5985C78.0498 31.6161 77.7202 31.9149 77.2994 32.2653C76.8782 32.6161 76.525 32.8861 76.5102 32.8681C76.4954 32.8505 76.825 32.5517 77.2462 32.2009C77.667 31.8505 78.0202 31.5809 78.035 31.5985Z" fill="#263238"/>
<path d="M77.5655 32.0155C77.5527 32.0331 77.2647 31.8379 76.9711 31.5271C76.6763 31.2175 76.4967 30.9191 76.5151 30.9075C76.5351 30.8935 76.7423 31.1659 77.0315 31.4699C77.3195 31.7747 77.5803 31.9963 77.5655 32.0155Z" fill="#263238"/>
<path d="M72.0813 37.8003C72.0705 37.8043 72.0149 37.6727 71.9333 37.4571C71.8521 37.2415 71.7449 36.9415 71.6317 36.6087C71.5181 36.2759 71.4201 35.9727 71.3529 35.7523C71.2857 35.5319 71.2497 35.3939 71.2609 35.3903C71.2717 35.3867 71.3277 35.5183 71.4089 35.7339C71.4901 35.9495 71.5973 36.2491 71.7105 36.5815C71.8237 36.9139 71.9217 37.2167 71.9889 37.4371C72.0561 37.6583 72.0921 37.7967 72.0813 37.8003Z" fill="#FAFAFA"/>
<path d="M73.7425 36.8053C73.7229 36.8173 73.4513 36.4073 73.1361 35.8897C72.8209 35.3721 72.5813 34.9425 72.6009 34.9309C72.6205 34.9189 72.8921 35.3289 73.2073 35.8465C73.5225 36.3641 73.7621 36.7933 73.7425 36.8053Z" fill="#FAFAFA"/>
<path d="M75.2477 35.6387C75.2321 35.6555 74.9285 35.3803 74.5697 35.0239C74.2109 34.6675 73.9333 34.3659 73.9501 34.3499C73.9669 34.3343 74.2705 34.6095 74.6281 34.9647C74.9861 35.3203 75.2633 35.6219 75.2477 35.6387Z" fill="#FAFAFA"/>
<path d="M76.4932 34.4119C76.4784 34.4295 76.2488 34.2611 75.98 34.0355C75.7112 33.8099 75.5056 33.6131 75.5204 33.5951C75.5352 33.5775 75.7648 33.7459 76.0336 33.9715C76.3024 34.1975 76.508 34.3943 76.4932 34.4119Z" fill="#FAFAFA"/>
<path d="M69.7212 38.8307C69.6984 38.8319 69.6448 38.1831 69.602 37.3815C69.5592 36.5799 69.5432 35.9291 69.5664 35.9279C69.5892 35.9267 69.6428 36.5755 69.6852 37.3771C69.728 38.1787 69.744 38.8295 69.7212 38.8307Z" fill="#FAFAFA"/>
<path d="M67.4455 39.1864C67.4227 39.1832 67.5043 38.4407 67.6283 37.5279C67.7519 36.6147 67.8707 35.8775 67.8935 35.8807C67.9163 35.8839 67.8347 36.6263 67.7107 37.5391C67.5867 38.4519 67.4683 39.1896 67.4455 39.1864Z" fill="#FAFAFA"/>
<path d="M66.0986 35.2068C66.1206 35.2132 65.907 36.0112 65.6214 36.9884C65.3358 37.9664 65.0862 38.7536 65.0642 38.7468C65.0422 38.7404 65.2558 37.9428 65.5414 36.9648C65.827 35.9876 66.0766 35.2004 66.0986 35.2068Z" fill="#FAFAFA"/>
<path d="M64.5521 34.4772C64.5741 34.4844 64.3201 35.3036 63.9853 36.3064C63.6505 37.3096 63.3613 38.1168 63.3393 38.1096C63.3173 38.1024 63.5713 37.2832 63.9061 36.28C64.2409 35.2772 64.5301 34.47 64.5521 34.4772Z" fill="#FAFAFA"/>
<path d="M62.3136 33.43C62.3356 33.436 62.1128 34.3252 61.8156 35.4156C61.5184 36.5064 61.2592 37.3856 61.2372 37.3796C61.2152 37.3736 61.438 36.4848 61.7352 35.3936C62.0324 34.3032 62.2912 33.424 62.3136 33.43Z" fill="#FAFAFA"/>
<path d="M59.9211 32.7793C59.9435 32.7841 59.7683 33.6629 59.5295 34.7421C59.2907 35.8213 59.0791 36.6917 59.0567 36.6869C59.0343 36.6817 59.2095 35.8033 59.4483 34.7241C59.6867 33.6449 59.8987 32.7741 59.9211 32.7793Z" fill="#FAFAFA"/>
<path d="M57.505 32.3591C57.5282 32.3587 57.5546 33.2935 57.5646 34.4467C57.5746 35.6003 57.5642 36.5351 57.541 36.5351C57.5182 36.5351 57.4914 35.6007 57.4814 34.4475C57.4714 33.2943 57.4822 32.3595 57.505 32.3591Z" fill="#FAFAFA"/>
<path d="M55.5639 36.6176C55.5583 36.6188 55.5411 36.5584 55.5151 36.448C55.4819 36.292 55.4487 36.1364 55.4151 35.9788C55.3359 35.5816 55.2383 35.0304 55.1487 34.4184C55.0591 33.8064 54.9947 33.2504 54.9567 32.8468C54.9435 32.686 54.9307 32.5276 54.9179 32.3684C54.9111 32.2552 54.9103 32.1924 54.9159 32.192C54.9215 32.1916 54.9335 32.2532 54.9499 32.3652C54.9715 32.5232 54.9931 32.6804 55.0151 32.84C55.0839 33.3392 55.1539 33.8484 55.2307 34.406C55.3167 34.962 55.3955 35.47 55.4727 35.968C55.4975 36.1272 55.5219 36.284 55.5467 36.4416C55.5635 36.554 55.5699 36.6164 55.5639 36.6176Z" fill="#FAFAFA"/>
<path d="M53.4167 37.0592C53.3947 37.0664 53.0671 36.1388 52.6851 34.9876C52.3027 33.836 52.0107 32.8968 52.0327 32.8896C52.0547 32.8824 52.3819 33.8096 52.7643 34.9616C53.1463 36.1128 53.4387 37.052 53.4167 37.0592Z" fill="#FAFAFA"/>
<path d="M51.4679 37.7501C51.4471 37.7601 51.0183 36.9001 50.5103 35.8301C50.0023 34.7597 49.6071 33.8841 49.6279 33.8741C49.6487 33.8641 50.0775 34.7237 50.5855 35.7945C51.0935 36.8645 51.4887 37.7401 51.4679 37.7501Z" fill="#FAFAFA"/>
<path d="M48.9391 37.5238C48.9219 37.5366 48.6763 37.2234 48.4651 36.7822C48.2519 36.3422 48.1599 35.9546 48.1807 35.9494C48.2043 35.9422 48.3303 36.313 48.5399 36.7462C48.7479 37.1802 48.9595 37.5098 48.9391 37.5238Z" fill="#FAFAFA"/>
</svg>
