<svg width="95" height="151" viewBox="0 0 95 151" fill="none" xmlns="http://www.w3.org/2000/svg">
<g filter="url(#filter0_d_4_695)">
<path d="M89.2878 0.243774H4.84863V141.317H89.2878V0.243774Z" fill="white"/>
</g>
<path d="M27.2511 83.318L28.1558 85.1515L30.1793 85.4454L28.7152 86.8727L29.0609 88.8877L27.2511 87.9366L25.4412 88.8877L25.787 86.8727L24.3228 85.4454L26.3459 85.1515L27.2511 83.318Z" fill="#FFA600"/>
<path d="M37.3047 83.318L38.2099 85.1515L40.233 85.4454L38.7689 86.8727L39.1146 88.8877L37.3047 87.9366L35.4949 88.8877L35.8406 86.8727L34.3765 85.4454L36.4 85.1515L37.3047 83.318Z" fill="#FFA600"/>
<path d="M47.3594 83.318L48.2641 85.1515L50.2876 85.4454L48.823 86.8727L49.1688 88.8877L47.3594 87.9366L45.5495 88.8877L45.8953 86.8727L44.4312 85.4454L46.4542 85.1515L47.3594 83.318Z" fill="#FFA600"/>
<path d="M57.4129 83.318L58.3176 85.1515L60.3412 85.4454L58.877 86.8727L59.2228 88.8877L57.4129 87.9366L55.6031 88.8877L55.9488 86.8727L54.4847 85.4454L56.5077 85.1515L57.4129 83.318Z" fill="#FFA600"/>
<path d="M67.4676 83.318L68.3728 85.1515L70.3959 85.4454L68.9317 86.8727L69.2775 88.8877L67.4676 87.9366L65.6578 88.8877L66.0035 86.8727L64.5394 85.4454L66.5629 85.1515L67.4676 83.318Z" fill="#FFA600"/>
<path d="M43.6224 99.8548C43.6224 99.9274 37.2121 99.9858 29.3058 99.9858C21.3971 99.9858 14.9877 99.9269 14.9877 99.8548C14.9877 99.7827 21.3971 99.7238 29.3058 99.7238C37.2116 99.7233 43.6224 99.7822 43.6224 99.8548Z" fill="#FA1239"/>
<path d="M79.6035 106.071C79.6035 106.144 65.306 106.202 47.6736 106.202C30.0351 106.202 15.7407 106.144 15.7407 106.071C15.7407 105.999 30.0351 105.94 47.6736 105.94C65.306 105.94 79.6035 105.999 79.6035 106.071Z" fill="#263238"/>
<path d="M79.6035 111.413C79.6035 111.486 65.306 111.544 47.6736 111.544C30.0351 111.544 15.7407 111.485 15.7407 111.413C15.7407 111.341 30.0351 111.282 47.6736 111.282C65.306 111.281 79.6035 111.34 79.6035 111.413Z" fill="#263238"/>
<path d="M79.6035 116.754C79.6035 116.827 65.306 116.885 47.6736 116.885C30.0351 116.885 15.7407 116.826 15.7407 116.754C15.7407 116.682 30.0351 116.623 47.6736 116.623C65.306 116.623 79.6035 116.682 79.6035 116.754Z" fill="#263238"/>
<path d="M79.6035 122.096C79.6035 122.168 65.306 122.227 47.6736 122.227C30.0351 122.227 15.7407 122.168 15.7407 122.096C15.7407 122.023 30.0351 121.965 47.6736 121.965C65.306 121.965 79.6035 122.024 79.6035 122.096Z" fill="#263238"/>
<path d="M79.6035 127.437C79.6035 127.51 65.306 127.568 47.6736 127.568C30.0351 127.568 15.7407 127.51 15.7407 127.437C15.7407 127.364 30.0351 127.306 47.6736 127.306C65.306 127.306 79.6035 127.365 79.6035 127.437Z" fill="#263238"/>
<path d="M83.1419 7.40662H10.4057V77.2363H83.1419V7.40662Z" fill="#E0E0E0"/>
<path d="M42.6062 18.9785C43.3662 16.4252 45.7053 14.5135 48.2958 13.8936C50.8864 13.2737 54.1019 12.4265 56.4742 13.6381C57.9565 14.3951 59.3783 15.4903 59.9609 17.0497C60.6514 18.8983 59.5889 22.3477 59.0592 24.2488C58.529 26.1494 58.1304 28.3176 59.1782 29.9899C60.1978 31.6173 62.2727 32.2498 63.5615 33.6736C65.3487 35.6488 65.0891 39.1112 63.0272 40.7976C65.3184 40.6636 67.2533 43.0006 67.1731 45.2938C67.0935 47.5875 65.4142 49.6005 63.3679 50.6397C61.3217 51.679 58.9599 51.8957 56.6652 51.8997C53.8212 51.9043 50.9766 51.6094 48.1935 51.0218C45.8988 50.5369 43.5058 49.7638 42.0129 47.9549C40.6411 46.2927 40.2615 44.0222 40.2575 41.8671C40.2429 34.2411 44.2462 26.6811 42.5109 19.2547" fill="#263238"/>
<path d="M44.465 17.2267C42.0871 15.5862 38.7416 15.4874 36.2715 16.9848C33.8009 18.4816 32.3403 21.493 32.6936 24.3603C32.8781 25.8572 33.5096 27.3667 33.125 28.8252C32.4048 31.5579 28.5502 32.6254 28.0422 35.4055C27.8416 36.5017 28.2317 37.6074 28.5255 38.6825C28.8199 39.7575 29.0058 40.9696 28.4509 41.9358C28.0397 42.6515 27.2952 43.099 26.7111 43.6826C24.8327 45.558 24.867 48.8491 26.44 50.9876C28.0129 53.1261 30.795 54.1522 33.4481 54.0666C36.1011 53.9804 38.6367 52.9099 40.8997 51.5224" fill="#263238"/>
<path d="M38.8934 20.2885L38.9292 22.1019L39.2936 49.2524C39.3359 52.4044 42.0797 54.878 45.454 54.8069C48.862 54.7349 51.6305 52.0969 51.6401 48.9127C51.6502 45.5701 51.7222 42.0512 51.7222 42.0512C51.7222 42.0512 56.0284 41.336 56.9205 35.7179C57.364 32.9238 57.2239 28.3429 56.988 24.5982C56.7758 21.2274 53.8027 18.712 50.4441 19.0673L38.8934 20.2885Z" fill="#B78876"/>
<path d="M54.8253 27.7875C54.8389 28.168 54.5274 28.4931 54.1303 28.5142C53.7341 28.5354 53.401 28.2451 53.3874 27.8646C53.3738 27.4841 53.6852 27.1585 54.0814 27.1373C54.479 27.1161 54.8122 27.407 54.8253 27.7875Z" fill="#263238"/>
<path d="M55.9947 26.9806C55.9055 27.0743 55.3597 26.6706 54.584 26.6726C53.8094 26.6635 53.2404 27.0622 53.1562 26.9675C53.1149 26.9256 53.2061 26.7558 53.4536 26.5753C53.6975 26.3959 54.1133 26.221 54.5966 26.223C55.0795 26.2256 55.4857 26.4035 55.7196 26.5854C55.9579 26.7689 56.0391 26.9387 55.9947 26.9806Z" fill="#263238"/>
<path d="M47.3566 27.7874C47.3702 28.1679 47.0588 28.493 46.6616 28.5141C46.2655 28.5353 45.9323 28.245 45.9187 27.8645C45.9051 27.4839 46.2166 27.1584 46.6127 27.1372C47.0099 27.116 47.343 27.4068 47.3566 27.7874Z" fill="#263238"/>
<path d="M48.3706 27.1251C48.2814 27.2188 47.7345 26.8151 46.9599 26.8171C46.1853 26.8081 45.6162 27.2067 45.5321 27.112C45.4907 27.0701 45.581 26.9003 45.8299 26.7199C46.0739 26.5399 46.4897 26.3656 46.9725 26.3676C47.4553 26.3701 47.8616 26.548 48.0954 26.73C48.3333 26.9134 48.4144 27.0833 48.3706 27.1251Z" fill="#263238"/>
<path d="M51.187 32.8752C51.1835 32.8314 51.6653 32.7477 52.4465 32.6479C52.6445 32.6273 52.8315 32.588 52.8653 32.4529C52.9117 32.3098 52.829 32.0966 52.7333 31.8662C52.5473 31.3869 52.3522 30.8849 52.1476 30.3588C51.3347 28.2122 50.746 26.4472 50.8327 26.4155C50.9194 26.3837 51.6492 28.0973 52.4621 30.2439C52.6577 30.7731 52.8451 31.2776 53.0231 31.7604C53.0982 31.9852 53.2267 32.2407 53.1259 32.5376C53.0725 32.6857 52.9273 32.7931 52.8003 32.8269C52.6733 32.8657 52.5619 32.8677 52.4641 32.8737C51.6779 32.9161 51.19 32.9196 51.187 32.8752Z" fill="#263238"/>
<path d="M51.723 42.0507C51.723 42.0507 47.9435 42.2942 44.1987 40.0438C44.1987 40.0438 46.0242 43.9035 51.6474 43.3773L51.723 42.0507Z" fill="#AA6550"/>
<path d="M50.8596 34.7442C50.5809 34.3753 50.092 34.1732 49.6072 34.2251C49.2705 34.2614 48.9308 34.4237 48.7262 34.6973C48.5216 34.9715 48.4787 35.3601 48.6647 35.6217C48.8739 35.916 49.3114 35.984 49.6813 35.8787C50.0512 35.7734 50.3698 35.5299 50.6722 35.287C50.7558 35.22 50.8415 35.1499 50.8939 35.0577C50.9458 34.9655 50.9574 34.8455 50.8929 34.7689" fill="#AA6550"/>
<path d="M48.9053 33.412C49.0313 33.4044 49.0328 34.2461 49.7535 34.8433C50.4727 35.4426 51.3699 35.3483 51.3764 35.4658C51.388 35.5187 51.1763 35.629 50.7978 35.6396C50.4264 35.6522 49.8841 35.5333 49.4431 35.1674C49.0036 34.801 48.8146 34.3121 48.7858 33.9669C48.7536 33.6156 48.8478 33.4069 48.9053 33.412Z" fill="#263238"/>
<path d="M43.4639 17.6565C43.4931 17.59 43.5551 17.5532 43.603 17.5743C43.6509 17.5955 43.666 17.6661 43.6367 17.7326C43.6075 17.7991 43.5455 17.8359 43.4976 17.8148C43.4498 17.7936 43.4351 17.723 43.4639 17.6565Z" fill="#263238"/>
<path d="M38.5993 46.8688C40.2579 46.2922 41.5638 44.8825 42.1868 43.2405C42.8097 41.5984 42.787 39.7518 42.3067 38.0629C42.0844 37.2807 41.7699 36.4254 42.1142 35.689C42.3642 35.1543 42.9019 34.8272 43.3394 34.4315C44.3242 33.541 44.8469 32.2134 44.9341 30.8889C45.0218 29.5639 44.7057 28.2389 44.2209 27.0031C43.9543 26.3227 43.6312 25.5778 43.8777 24.8898C44.0516 24.403 44.4759 24.0587 44.8539 23.7064C45.6528 22.961 46.317 22.0715 46.8054 21.0942C47.1517 20.4012 47.4072 19.5666 47.072 18.868C46.6678 18.0248 45.6049 17.7602 44.6725 17.6892C42.4488 17.5198 39.9883 18.0107 38.5736 19.7344C37.3045 21.2802 37.1589 23.4318 37.0686 25.4296C36.7859 31.7236 36.5067 38.0775 37.5948 44.2827" fill="#263238"/>
<path d="M59.1179 19.6624C58.8417 19.8998 58.4536 19.986 58.1573 20.1841C57.8574 20.3771 57.6417 20.6185 57.3464 20.8902C57.2017 21.0288 57.0439 21.1845 56.9043 21.3463C56.867 21.3871 56.8434 21.4264 56.801 21.4703L56.6428 21.6295C56.5157 21.75 56.3857 21.8735 56.2527 21.9995C55.9533 22.2691 55.5783 22.5987 55.0491 22.948C54.5325 23.2912 53.8138 23.6672 52.9595 23.8602C51.2696 24.2367 49.7863 23.8643 48.6982 23.3401C47.5768 22.7933 46.8566 22.0912 46.3602 21.4632C45.4026 20.1886 45.2559 19.1569 45.6954 18.5965C46.148 18.0189 47.2437 18.1151 48.485 18.4201C49.0984 18.5587 49.7556 18.727 50.3226 18.7844C50.9078 18.8555 51.4465 18.8288 51.7842 18.7441C51.9394 18.7104 52.1426 18.6489 52.4646 18.5017C52.7776 18.3621 53.1722 18.1524 53.6253 17.9382C53.8516 17.8314 54.0915 17.7235 54.3486 17.6237C54.4731 17.5743 54.6086 17.5265 54.7392 17.4821C54.8813 17.4357 55.0385 17.3833 55.1847 17.3475C55.7774 17.1979 56.3414 17.1595 56.8675 17.2099C57.9194 17.2987 58.8206 17.8274 59.1668 18.4085C59.5251 18.9921 59.3835 19.4402 59.1179 19.6624Z" fill="#263238"/>
<path d="M30.7258 50.739C30.7223 50.742 30.6951 50.7148 30.6442 50.6589C30.5968 50.6004 30.5121 50.5233 30.432 50.3998C30.2546 50.1654 30.0278 49.7829 29.865 49.2426C29.7072 48.7043 29.6165 48.0003 29.7647 47.2065C29.9053 46.4162 30.3554 45.5508 31.125 44.8881C31.8729 44.2041 32.8577 43.6921 33.7614 42.9764C34.2079 42.614 34.6353 42.1876 34.9473 41.669C35.2628 41.1549 35.4241 40.5315 35.3253 39.905C35.156 38.6379 34.1081 37.5236 34.0184 36.001C33.9272 34.5253 34.7608 32.9458 36.1846 32.2518C36.861 31.8864 37.5731 31.6248 38.1064 31.1541C38.6542 30.6979 38.8946 29.9918 38.873 29.3054C38.8578 28.6139 38.6401 27.9426 38.3564 27.3317C38.0645 26.7199 37.7097 26.1428 37.4099 25.5511C37.109 24.9609 36.858 24.3445 36.7728 23.7049C36.6861 23.0654 36.7798 22.4283 37.0006 21.8694C37.4396 20.7414 38.2843 19.9305 39.1345 19.4003C40.0029 18.8701 40.9031 18.6412 41.6858 18.5127C42.4735 18.3877 43.1605 18.3766 43.7174 18.3817C44.2753 18.3908 44.7073 18.4205 44.9996 18.4457C45.1321 18.4588 45.241 18.4699 45.3317 18.479C45.4063 18.488 45.4446 18.4951 45.4441 18.4996C45.4436 18.5092 45.2894 18.5067 44.9966 18.4986C44.7037 18.4905 44.2723 18.4774 43.7174 18.4845C43.1635 18.4951 42.4826 18.5213 41.71 18.6579C40.9429 18.797 40.0629 19.0369 39.2328 19.5585C38.4158 20.0807 37.6099 20.875 37.2042 21.9475C36.9996 22.4792 36.9174 23.0749 37.0016 23.6742C37.0858 24.2745 37.3272 24.8636 37.6256 25.4417C37.9229 26.0223 38.2792 26.5949 38.5832 27.2259C38.879 27.8584 39.1109 28.5554 39.13 29.3008C39.1602 30.0367 38.8866 30.8476 38.2797 31.3506C37.6926 31.8652 36.9633 32.1273 36.3096 32.4836C34.968 33.1358 34.1969 34.608 34.275 35.9884C34.3385 37.3911 35.3702 38.5034 35.5647 39.8717C35.67 40.5537 35.4851 41.2461 35.1449 41.7885C34.8087 42.3388 34.3601 42.7768 33.898 43.1462C32.96 43.875 31.9823 44.3699 31.2485 45.0272C30.4955 45.6622 30.061 46.4731 29.9088 47.2362C29.7521 48.0003 29.8246 48.6862 29.9637 49.2154C30.2641 50.2849 30.7681 50.7168 30.7258 50.739Z" fill="#455A64"/>
<path d="M62.0729 49.6605C62.0441 49.6358 62.406 49.5577 62.5572 49.0456C62.6247 48.8012 62.6348 48.4675 62.4942 48.1344C62.3516 47.8032 62.0446 47.4958 61.6581 47.2373C61.272 46.9716 60.7917 46.7595 60.3164 46.4314C59.8517 46.1194 59.3538 45.6073 59.2988 44.9098C59.2384 44.2264 59.5372 43.556 59.9349 42.984C60.3416 42.4039 60.8633 41.914 61.267 41.3258C61.6838 40.7493 61.8834 40.0663 61.7795 39.4132C61.6888 38.759 61.3622 38.1768 61.0084 37.6718C60.2862 36.6588 59.385 35.929 58.8125 35.1438C58.2152 34.3817 57.9088 33.6262 57.8493 33.0834C57.8211 32.8123 57.8312 32.6006 57.8534 32.46C57.8776 32.3194 57.8942 32.2473 57.9033 32.2488C57.932 32.2513 57.8655 32.5482 57.9501 33.0683C58.0388 33.5864 58.3559 34.2976 58.9581 35.0294C59.5322 35.7808 60.4419 36.489 61.2045 37.5312C61.5754 38.0503 61.9287 38.6587 62.0335 39.3769C62.087 39.7327 62.0668 40.1077 61.9721 40.469C61.8753 40.8309 61.6944 41.1676 61.4827 41.4745C61.0583 42.0904 60.5301 42.5843 60.1456 43.1312C59.762 43.674 59.4914 44.2959 59.5398 44.8881C59.5796 45.4879 59.9999 45.9435 60.4424 46.2545C60.8874 46.5745 61.3678 46.7993 61.7639 47.0856C62.1611 47.3663 62.4836 47.703 62.6303 48.0799C62.7724 48.4569 62.7432 48.8158 62.6545 49.0774C62.5612 49.3425 62.4 49.5058 62.276 49.5804C62.153 49.6585 62.0729 49.6605 62.0729 49.6605Z" fill="#455A64"/>
<path d="M59.498 17.3677C59.5071 17.3677 59.5131 17.4276 59.5166 17.5431C59.5177 17.658 59.5071 17.8288 59.4657 18.045C59.3816 18.4714 59.1548 19.1024 58.5933 19.6755C58.0495 20.2495 57.1 20.7006 56.034 20.5993C55.5068 20.555 54.9565 20.3856 54.4746 20.0575C53.9933 19.7299 53.6067 19.2763 53.2252 18.8298C52.8457 18.3777 52.4581 17.971 52.0091 17.663C51.5655 17.3495 51.0837 17.1273 50.6084 16.975C49.6508 16.6742 48.7184 16.7029 47.9821 16.8803C47.2392 17.0527 46.6858 17.351 46.3249 17.5778C45.9641 17.8097 45.7826 17.9674 45.768 17.9508C45.7585 17.9407 45.9167 17.7562 46.267 17.4937C46.6178 17.2361 47.1732 16.9025 47.9372 16.7004C48.6937 16.4927 49.672 16.4413 50.679 16.7437C51.179 16.8964 51.687 17.1252 52.1557 17.4518C52.63 17.7719 53.0458 18.2073 53.4243 18.6589C53.8073 19.108 54.1783 19.5414 54.6198 19.8453C55.0588 20.1487 55.5663 20.311 56.0557 20.3584C57.0481 20.4642 57.9321 20.0681 58.4628 19.5434C59.0096 19.0193 59.2546 18.4276 59.3659 18.0219C59.4763 17.6096 59.4733 17.3667 59.498 17.3677Z" fill="#455A64"/>
<path d="M48.5737 24.0865C48.4971 24.2972 47.723 24.1974 46.8132 24.3073C45.9015 24.3985 45.1677 24.6651 45.0472 24.4756C44.9933 24.3854 45.1213 24.1868 45.4177 23.9827C45.7115 23.7791 46.1807 23.585 46.7271 23.5246C47.2729 23.4651 47.7734 23.5518 48.1045 23.6864C48.4382 23.8209 48.6065 23.9867 48.5737 24.0865Z" fill="#263238"/>
<path d="M55.7087 24.7366C55.5722 24.9125 55.0384 24.73 54.3958 24.7215C53.7537 24.6902 53.2099 24.8399 53.0844 24.6555C53.0295 24.5657 53.1152 24.3893 53.3531 24.223C53.5874 24.0567 53.979 23.9211 54.4205 23.9342C54.8615 23.9483 55.2441 24.1076 55.4678 24.288C55.6941 24.4695 55.7687 24.6509 55.7087 24.7366Z" fill="#263238"/>
<path d="M33.7619 77.4628C34.032 77.9305 32.0402 71.2263 32.0402 71.2263L30.3725 77.354L17.9993 77.4462C17.9993 77.4462 24.9918 54.5918 28.3126 51.4015C32.6465 47.238 40.7705 47.0096 40.7705 47.0096L45.6326 51.1596L53.3161 47.2133C53.3161 47.2133 53.4133 47.2223 53.5938 47.244C58.7129 47.8634 63.1688 51.0386 65.4771 55.6497L73.8077 77.2365H62.8079L60.4623 70.8665L61.2445 77.2365" fill="#FA1239"/>
<path d="M36.8149 47.508L47.9609 72.8657L53.5946 47.2439C53.5946 47.2439 52.0332 47.1532 49.802 47.0695C48.5672 47.0231 47.1267 51.9044 45.6334 51.8787C44.6783 51.8625 43.7026 46.9279 42.7434 46.9314C41.5288 46.9354 40.3424 46.9586 39.2638 47.0095C38.3526 47.0529 37.5235 47.4399 36.8149 47.508Z" fill="#FAFAFA"/>
<path d="M38.929 47.7424V45.4144C38.929 45.4144 45.5742 45.5031 45.6871 50.8208C45.6871 50.8208 46.6301 45.5807 51.9931 45.4144L52.3369 47.1976L50.8239 53.3126L46.9547 55.8896H41.7373L39.5781 53.051L38.929 47.7424Z" fill="#FAFAFA"/>
<path d="M47.8869 73.5421C47.8783 73.5396 47.9015 73.4423 47.9534 73.2578C48.0139 73.0769 48.1006 72.8063 48.2739 72.4827C48.4458 72.1601 48.7069 71.7887 49.0617 71.4107C49.4135 71.0297 49.8358 70.626 50.2668 70.1456C51.121 69.177 52.2339 68.0752 53.0378 66.5753C53.4354 65.8299 53.7096 64.9686 53.7504 64.0518C53.7983 63.1431 53.5735 62.1693 52.9793 61.4108L52.8009 61.183L53.0927 61.1986C53.2 61.2042 53.316 61.2022 53.4314 61.184C53.8951 61.1079 54.3038 60.8126 54.5931 60.4457C54.8889 60.0757 55.0578 59.6332 55.1233 59.1736C55.2574 58.2507 55.0583 57.336 54.9182 56.4696C54.6304 54.7399 54.3703 53.177 54.1501 51.852C53.945 50.5617 53.7771 49.5058 53.6546 48.7347C53.6053 48.389 53.5649 48.1077 53.5332 47.885C53.5085 47.6904 53.4994 47.5871 53.5085 47.5856C53.5176 47.5841 53.5438 47.6839 53.5856 47.8759C53.63 48.0961 53.6864 48.3749 53.7559 48.7171C53.8986 49.4842 54.0946 50.5355 54.3335 51.8197C54.5699 53.1422 54.8486 54.7016 55.1571 56.4278C55.3007 57.2896 55.5159 58.221 55.3778 59.2114C55.3113 59.7002 55.1238 60.2012 54.7982 60.6069C54.4792 61.0116 54.0221 61.3513 53.4732 61.4426C53.3371 61.4642 53.1995 61.4668 53.072 61.4597L53.1854 61.2475C53.828 62.0685 54.0604 63.1113 54.0064 64.0629C53.9606 65.0225 53.6657 65.9221 53.2499 66.6872C52.4077 68.2249 51.2712 69.3171 50.4023 70.2691C49.9578 70.7464 49.5234 71.1436 49.1675 71.5095C48.8077 71.8723 48.5441 72.2226 48.3621 72.5311C48.0078 73.1555 47.9146 73.5522 47.8869 73.5421Z" fill="#263238"/>
<path d="M47.8851 73.3233C47.8781 73.3289 47.8065 73.2493 47.677 73.0935C47.5298 72.9161 47.3428 72.6903 47.1125 72.4116C46.6191 71.8219 45.8858 70.9868 44.9634 69.9662C44.0462 68.9421 42.9333 67.7345 41.8245 66.282C41.2797 65.5567 40.6825 64.7896 40.2682 63.8633C39.8599 62.949 39.6729 61.8211 40.0807 60.7838C40.1361 60.6447 40.2052 60.5122 40.2747 60.3922L40.3438 60.5837C39.3524 60.2264 38.4976 59.6035 37.86 58.856C37.2114 58.1151 36.7482 57.274 36.4297 56.4368C35.7851 54.7484 35.7518 53.0998 35.8123 51.7693C35.8859 50.4286 36.0673 49.3612 36.1908 48.6263C36.2548 48.2821 36.3067 48.0029 36.3476 47.7826C36.3869 47.5906 36.4121 47.4903 36.4206 47.4918C36.4292 47.4934 36.4216 47.5962 36.399 47.7907C36.3707 48.013 36.3344 48.2942 36.2901 48.641C36.1974 49.3788 36.0441 50.4478 35.9953 51.7763C35.9585 53.0953 36.0139 54.7147 36.6535 56.3496C36.9695 57.1621 37.4246 57.9755 38.0526 58.6862C38.67 59.4044 39.488 59.9951 40.4304 60.3348L40.5791 60.3882L40.4995 60.5263C40.437 60.6346 40.3745 60.7546 40.3241 60.8811C39.9522 61.8221 40.1159 62.8855 40.504 63.7584C40.8966 64.6465 41.4783 65.407 42.018 66.1353C43.1067 67.5838 44.2029 68.802 45.103 69.8422C46.0082 70.8784 46.7229 71.7357 47.1926 72.3461C47.4265 72.6525 47.6054 72.8919 47.7198 73.0598C47.8352 73.2281 47.8927 73.3183 47.8851 73.3233Z" fill="#263238"/>
<path d="M47.763 77.4069C47.6909 77.4013 47.6581 76.3853 47.6909 75.1373C47.7232 73.8889 47.8083 72.8759 47.8809 72.8744C47.9535 72.8729 47.9857 73.8889 47.953 75.1444C47.9202 76.3989 47.8351 77.4119 47.763 77.4069Z" fill="#263238"/>
<path d="M31.7194 72.7368C31.7012 72.7307 31.7834 72.4207 31.9356 71.8633C32.0812 71.3039 32.2904 70.494 32.4925 69.4819C32.8997 67.4614 33.2545 64.6128 33.0983 61.4673C33.0166 59.8974 32.8629 58.399 32.5056 57.0906C32.1593 55.7792 31.5903 54.6774 30.9392 53.8897C30.294 53.0934 29.6016 52.6105 29.1001 52.3384C28.593 52.0702 28.2821 51.9825 28.2896 51.9589C28.2922 51.9503 28.3708 51.9669 28.519 52.0072C28.6666 52.0486 28.8808 52.1242 29.1459 52.2471C29.6716 52.4961 30.4004 52.9684 31.0818 53.7707C31.7693 54.5635 32.373 55.692 32.739 57.0261C33.1164 58.3597 33.2787 59.8732 33.3609 61.4547C33.5181 64.6274 33.1305 67.4987 32.6744 69.5202C32.4476 70.5333 32.2102 71.3397 32.0338 71.8921C31.9446 72.1682 31.8665 72.3794 31.8141 72.5226C31.7602 72.6662 31.7279 72.7398 31.7194 72.7368Z" fill="#263238"/>
<path d="M60.5583 68.628C60.5401 68.6275 60.528 68.3276 60.5215 67.7858C60.5175 67.2445 60.5033 66.4608 60.4691 65.4941C60.4061 63.5608 60.2302 60.8911 59.8083 57.9704C59.1622 53.3608 58.065 49.5445 57.6885 48.1661L57.6527 48.035L57.7565 48.1177C58.0983 48.3899 58.2626 48.531 58.2535 48.5431C58.2444 48.5552 58.0625 48.4382 57.7041 48.1878L57.7722 48.1394C58.2459 49.4876 59.4192 53.3018 60.0684 57.9326C60.4922 60.8654 60.6394 63.5492 60.655 65.4891C60.6651 66.4593 60.651 67.2445 60.6238 67.7863C60.5986 68.3291 60.5764 68.6285 60.5583 68.628Z" fill="#263238"/>
<path d="M44.4528 47.8099C44.4548 47.8325 44.3268 47.8245 44.1554 47.9424C43.981 48.0568 43.7991 48.3063 43.6257 48.6571C43.2643 49.3466 42.8637 50.3772 42.7442 51.5964L42.7114 51.927L42.5093 51.6609C42.3924 51.5062 42.2689 51.3439 42.1434 51.1786C41.3033 50.0849 40.4787 49.1465 39.8684 48.4792C39.2575 47.8119 38.8669 47.4087 38.8937 47.381C38.9168 47.3563 39.3533 47.7126 40.0024 48.3507C40.6506 48.9887 41.5049 49.9161 42.3521 51.0188C42.4776 51.1857 42.6016 51.3505 42.7195 51.5062L42.4852 51.5702C42.6172 50.3087 43.0627 49.2543 43.4735 48.5724C43.6696 48.2272 43.8943 47.9621 44.1075 47.8608C44.3202 47.7544 44.4578 47.8003 44.4528 47.8099Z" fill="#263238"/>
<path d="M52.2527 47.3074C52.281 47.3306 51.9383 47.8023 51.3617 48.5468C50.7851 49.2912 49.9747 50.3082 49.067 51.4211C48.9027 51.6217 48.7414 51.8187 48.5872 52.0072L48.3629 52.2809L48.3568 51.9281C48.3457 51.2996 48.3276 50.7134 48.2308 50.1994C48.1391 49.6843 47.9647 49.2498 47.7581 48.9217C47.3423 48.2575 46.8635 48.0685 46.8897 48.0317C46.8952 48.0191 47.0157 48.0493 47.2102 48.1642C47.4033 48.2781 47.6648 48.4903 47.9012 48.8265C48.1396 49.1596 48.3452 49.6188 48.4556 50.1545C48.572 50.6903 48.6003 51.2935 48.6164 51.922L48.3861 51.8429C48.5398 51.6539 48.7001 51.4563 48.8639 51.2547C49.7716 50.1419 50.6047 49.1435 51.218 48.4288C51.8314 47.7151 52.2245 47.2842 52.2527 47.3074Z" fill="#263238"/>
<path d="M47.6664 72.2804C47.6483 72.282 47.6049 71.9831 47.5409 71.4408C47.4784 70.8531 47.3963 70.078 47.2965 69.141C47.1014 67.1981 46.8499 64.5118 46.5889 61.5437C46.3273 58.5747 46.1055 55.8858 45.9579 53.9389C45.8919 52.9989 45.8379 52.2212 45.7966 51.6321C45.7643 51.0867 45.7553 50.7848 45.7729 50.7833C45.7911 50.7818 45.8344 51.0812 45.8984 51.624C45.9609 52.2117 46.043 52.9868 46.1428 53.9238C46.3379 55.8667 46.5889 58.5525 46.8505 61.5211C47.1115 64.4886 47.3338 67.1764 47.4815 69.1234C47.547 70.0639 47.6014 70.8415 47.6427 71.4307C47.675 71.9765 47.6846 72.2789 47.6664 72.2804Z" fill="#263238"/>
<path d="M47.6796 55.3926C47.6559 55.3679 47.8656 55.2434 48.1377 55.4233C48.2607 55.5095 48.3953 55.6693 48.3988 55.9006C48.4064 56.137 48.2139 56.3618 47.98 56.4328C47.7492 56.5135 47.4609 56.4449 47.3278 56.2499C47.1943 56.0609 47.2089 55.8522 47.2573 55.7101C47.3707 55.4042 47.6136 55.381 47.609 55.4152C47.6267 55.451 47.472 55.5302 47.4362 55.758C47.419 55.8663 47.4362 56.0069 47.5183 56.1012C47.5949 56.1964 47.7471 56.2312 47.8983 56.1833C48.0485 56.1329 48.1514 56.0155 48.1569 55.893C48.1675 55.7685 48.0984 55.6451 48.0208 55.5674C47.858 55.4042 47.6867 55.4314 47.6796 55.3926Z" fill="#263238"/>
<path d="M48.6477 61.6561C48.6285 61.6269 48.8664 61.5457 49.0972 61.7876C49.2001 61.901 49.2983 62.0921 49.2449 62.3234C49.1945 62.5608 48.9425 62.7331 48.6935 62.7387C48.4451 62.7553 48.1784 62.6061 48.1069 62.3738C48.0338 62.148 48.1144 61.9494 48.2067 61.827C48.4153 61.5659 48.6593 61.6259 48.6426 61.6561C48.6477 61.6954 48.4703 61.7181 48.3614 61.9288C48.31 62.028 48.2812 62.1717 48.3327 62.2881C48.378 62.4045 48.5186 62.4821 48.6809 62.4761C48.8432 62.4675 48.9763 62.3778 49.011 62.2579C49.0519 62.1374 49.0105 61.9973 48.9506 61.9026C48.8251 61.7025 48.6461 61.6959 48.6477 61.6561Z" fill="#263238"/>
<g opacity="0.3">
<path d="M36.1796 47.8069C35.2372 51.162 34.3426 54.9546 36.097 57.9655C36.6252 58.8722 37.3681 59.6438 37.8645 60.5687C38.7168 62.1563 38.7702 64.0402 39.2979 65.7629C40.3639 69.243 44.163 72.6304 47.7641 73.1616C45.9048 70.8956 43.0265 67.9503 41.3134 65.3824C40.7822 64.5861 40.3487 64.0453 40.136 63.1124C39.9234 62.1789 39.7661 61.1881 40.3875 60.4603C37.9809 60.0868 36.6096 57.5946 36.1721 55.1985C35.7346 52.8025 35.9145 50.3163 36.473 47.9455" fill="black"/>
</g>
<g opacity="0.3">
<path d="M60.6572 65.6339C60.0599 69.2319 60.4631 73.9504 62.6686 76.8554C63.4801 72.9046 63.0749 67.735 60.6703 64.4968" fill="black"/>
</g>
<defs>
<filter id="filter0_d_4_695" x="0.0486326" y="0.243774" width="94.0391" height="150.674" filterUnits="userSpaceOnUse" color-interpolation-filters="sRGB">
<feFlood flood-opacity="0" result="BackgroundImageFix"/>
<feColorMatrix in="SourceAlpha" type="matrix" values="0 0 0 0 0 0 0 0 0 0 0 0 0 0 0 0 0 0 127 0" result="hardAlpha"/>
<feOffset dy="4.8"/>
<feGaussianBlur stdDeviation="2.4"/>
<feComposite in2="hardAlpha" operator="out"/>
<feColorMatrix type="matrix" values="0 0 0 0 0 0 0 0 0 0 0 0 0 0 0 0 0 0 0.25 0"/>
<feBlend mode="normal" in2="BackgroundImageFix" result="effect1_dropShadow_4_695"/>
<feBlend mode="normal" in="SourceGraphic" in2="effect1_dropShadow_4_695" result="shape"/>
</filter>
</defs>
</svg>
