<svg width="122" height="121" viewBox="0 0 122 121" fill="none" xmlns="http://www.w3.org/2000/svg">
<g clip-path="url(#clip0_4_1148)">
<path d="M61.0006 50.4C59.5661 50.4018 58.1606 49.9953 56.9484 49.2282L24.1884 28.4206C23.1104 27.7408 22.2228 26.7981 21.6092 25.6811C20.9956 24.5641 20.676 23.3094 20.6806 22.0349V7.56C20.6806 5.55496 21.4771 3.63205 22.8949 2.21427C24.3126 0.796498 26.2356 0 28.2406 0L93.7606 0C95.7656 0 97.6885 0.796498 99.1063 2.21427C100.524 3.63205 101.321 5.55496 101.321 7.56V22.0349C101.324 23.3084 101.003 24.5618 100.39 25.6777C99.7763 26.7937 98.8896 27.7357 97.8128 28.4155L65.0527 49.2232C63.8411 49.9921 62.4356 50.4003 61.0006 50.4Z" fill="#FA1239"/>
<path d="M34.8153 22.7758C33.5698 21.9899 32.5444 20.9006 31.8352 19.61C31.126 18.3194 30.7562 16.8698 30.7606 15.3972V0H28.2406C26.2355 0 24.3126 0.796498 22.8948 2.21427C21.4771 3.63205 20.6806 5.55496 20.6806 7.56V22.0349C20.6769 23.3085 20.9968 24.5622 21.6104 25.6783C22.224 26.7943 23.1111 27.7362 24.1884 28.4155L56.9484 49.2232C58.1614 49.9886 59.5663 50.3949 61.0006 50.3949C62.4349 50.3949 63.8398 49.9886 65.0527 49.2232L70.7555 45.612L34.8153 22.7758Z" fill="#DC344D"/>
<path d="M83.6798 0V37.3968L68.5598 46.998V0H83.6798Z" fill="#EFF3F9"/>
<path d="M70.7547 45.6018L68.5598 44.2083V46.9979L70.7547 45.6043V45.6018Z" fill="#DBE6F7"/>
<path d="M53.4396 0V46.998L38.3196 37.3968V0H53.4396Z" fill="#EFF3F9"/>
<path d="M53.4396 34.6046L38.3196 25.0034V37.3968L53.4396 46.998V34.6046Z" fill="#DBE6F7"/>
<path d="M60.9996 120.96C80.4842 120.96 96.2796 105.165 96.2796 85.6799C96.2796 66.1953 80.4842 50.3999 60.9996 50.3999C41.515 50.3999 25.7196 66.1953 25.7196 85.6799C25.7196 105.165 41.515 120.96 60.9996 120.96Z" fill="#FFA221"/>
<path d="M41.8093 56.1001C37.3969 58.9579 33.6793 62.766 30.9284 67.2458C28.1775 71.7256 26.463 76.7637 25.9103 81.9915C25.3577 87.2194 25.9808 92.5047 27.7341 97.4606C29.4874 102.417 32.3265 106.918 36.0438 110.635C39.761 114.352 44.2623 117.192 49.2183 118.945C54.1742 120.698 59.4595 121.321 64.6874 120.769C69.9152 120.216 74.9533 118.501 79.4331 115.751C83.9129 113 87.721 109.282 90.5788 104.87C78.4503 102.675 67.2813 96.8285 58.5658 88.1131C49.8504 79.3976 44.0042 68.2286 41.8093 56.1001Z" fill="#FF8200"/>
<path d="M61.0005 113.4C76.3099 113.4 88.7205 100.989 88.7205 85.68C88.7205 70.3706 76.3099 57.96 61.0005 57.96C45.6912 57.96 33.2805 70.3706 33.2805 85.68C33.2805 100.989 45.6912 113.4 61.0005 113.4Z" fill="#FFC343"/>
<path d="M43.7756 63.9854C40.7154 66.4125 38.2031 69.4593 36.4034 72.9258C34.6037 76.3924 33.5575 80.2003 33.3333 84.0998C33.1091 87.9992 33.712 91.9019 35.1025 95.5519C36.493 99.2019 38.6396 102.517 41.4014 105.278C44.1633 108.04 47.478 110.187 51.128 111.577C54.7779 112.968 58.6807 113.571 62.5801 113.347C66.4795 113.122 70.2875 112.076 73.754 110.276C77.2206 108.477 80.2674 105.964 82.6945 102.904C73.5965 99.9484 65.3272 94.8812 58.5629 88.1169C51.7987 81.3526 46.7314 73.0834 43.7756 63.9854Z" fill="#FFA221"/>
<path d="M60.1079 98.0279L53.4148 100.409C53.0072 100.554 52.5704 100.597 52.1424 100.535C51.7144 100.473 51.3078 100.308 50.958 100.053C50.6082 99.7991 50.3255 99.4634 50.1345 99.0754C49.9434 98.6873 49.8498 98.2586 49.8616 97.8263L50.0581 90.7199C50.0737 90.1073 49.8789 89.5078 49.5063 89.0214L45.1744 83.3892C44.9107 83.0466 44.7344 82.6449 44.6608 82.2189C44.5872 81.7929 44.6185 81.3553 44.752 80.9441C44.8855 80.5329 45.1172 80.1605 45.427 79.8589C45.7369 79.5574 46.1155 79.3359 46.5301 79.2135L53.3341 77.1975C53.9221 77.0241 54.4322 76.6529 54.7781 76.1467L58.8051 70.3079C59.0495 69.9513 59.3771 69.6597 59.7595 69.4582C60.1419 69.2567 60.5677 69.1514 61 69.1514C61.4323 69.1514 61.858 69.2567 62.2405 69.4582C62.6229 69.6597 62.9505 69.9513 63.1949 70.3079L67.2118 76.1669C67.5577 76.673 68.0677 77.0442 68.6557 77.2177L75.4597 79.2337C75.8744 79.356 76.253 79.5775 76.5628 79.8791C76.8727 80.1806 77.1043 80.5531 77.2379 80.9643C77.3714 81.3755 77.4027 81.813 77.3291 82.2391C77.2555 82.6651 77.0792 83.0668 76.8155 83.4093L72.4836 89.039C72.111 89.5255 71.9162 90.1249 71.9317 90.7375L72.1283 97.8363C72.1401 98.2687 72.0464 98.6974 71.8554 99.0855C71.6644 99.4735 71.3817 99.8092 71.0319 100.063C70.682 100.318 70.2755 100.483 69.8475 100.545C69.4194 100.607 68.9827 100.564 68.5751 100.419L61.8921 98.0279C61.3148 97.8238 60.6851 97.8238 60.1079 98.0279Z" fill="#FFA221"/>
<path d="M50.4513 78.0569L46.5301 79.2136C46.1155 79.3359 45.7369 79.5574 45.427 79.8589C45.1172 80.1605 44.8855 80.533 44.752 80.9442C44.6185 81.3554 44.5872 81.7929 44.6608 82.2189C44.7344 82.6449 44.9107 83.0466 45.1744 83.3892L49.5063 89.0189C49.8789 89.5053 50.0737 90.1048 50.0581 90.7174L49.8616 97.8162C49.8498 98.2486 49.9434 98.6773 50.1345 99.0653C50.3255 99.4534 50.6082 99.789 50.958 100.043C51.3078 100.298 51.7144 100.463 52.1424 100.525C52.5704 100.587 53.0072 100.544 53.4148 100.399L60.1079 98.0178C60.6851 97.8137 61.3148 97.8137 61.8921 98.0178L68.5852 100.399C68.9524 100.529 69.3438 100.577 69.7315 100.539C70.1192 100.501 70.4938 100.377 70.8285 100.178C71.1632 99.9785 71.4498 99.7077 71.6679 99.3848C71.886 99.062 72.0303 98.6951 72.0905 98.3101C63.3162 93.4487 55.882 86.4906 50.4513 78.0569Z" fill="#FF8200"/>
</g>
<defs>
<clipPath id="clip0_4_1148">
<rect width="120.96" height="120.96" fill="white" transform="translate(0.519531)"/>
</clipPath>
</defs>
</svg>
