<svg width="449" height="390" viewBox="0 0 449 390" fill="none" xmlns="http://www.w3.org/2000/svg">
<path d="M270.272 151C284.19 153.659 317.725 164.862 328.5 191" stroke="url(#paint0_linear_4_266)" stroke-width="0.3" stroke-linecap="round"/>
<path d="M263.272 128C277.19 130.659 316.725 141.362 327.5 167.5" stroke="url(#paint1_linear_4_266)" stroke-width="0.3" stroke-linecap="round"/>
<path d="M107.547 272.11H263.095V370.941H107.547V272.11Z" fill="#455A64"/>
<path d="M111.01 303.975H266.962C276.351 303.975 283.963 296.363 283.963 286.974V286.29C283.963 276.901 276.351 269.289 266.962 269.289H111.009C101.62 269.289 94.0079 276.901 94.0079 286.29V286.974C94.0089 296.363 101.62 303.975 111.01 303.975Z" fill="#455A64"/>
<path d="M107.335 303.502C107.335 303.636 143.672 303.745 188.486 303.745C233.316 303.745 269.645 303.636 269.645 303.502C269.645 303.368 233.316 303.259 188.486 303.259C143.673 303.259 107.335 303.368 107.335 303.502Z" fill="#032433"/>
<path d="M242.319 371.732C242.453 371.732 242.562 356.667 242.562 338.087C242.562 319.501 242.453 304.438 242.319 304.438C242.185 304.438 242.076 319.5 242.076 338.087C242.076 356.666 242.185 371.732 242.319 371.732Z" fill="#032433"/>
<path d="M144 289.978C144.077 289.988 144.232 288.993 144.608 287.421C144.981 285.848 145.621 283.705 146.616 281.452C147.617 279.201 148.776 277.287 149.691 275.955C150.604 274.62 151.237 273.838 151.178 273.787C151.136 273.75 150.409 274.455 149.413 275.754C148.417 277.049 147.19 278.968 146.173 281.255C145.162 283.544 144.564 285.741 144.273 287.349C143.978 288.959 143.944 289.972 144 289.978Z" fill="#032433"/>
<path d="M135.643 284.793C135.727 284.822 136.068 283.802 136.898 282.3C137.72 280.799 139.116 278.853 141.086 277.135C143.064 275.424 145.186 274.315 146.788 273.71C148.391 273.099 149.449 272.904 149.432 272.817C149.426 272.784 149.159 272.809 148.676 272.884C148.192 272.949 147.503 273.117 146.672 273.387C145.01 273.919 142.798 275.011 140.768 276.768C138.745 278.532 137.354 280.569 136.595 282.14C136.212 282.925 135.949 283.584 135.817 284.054C135.674 284.521 135.612 284.782 135.643 284.793Z" fill="#032433"/>
<g opacity="0.3">
<path d="M228.365 270.006C222.152 304.282 211.332 339.65 196.117 370.986H189.121C186.261 367.029 187.211 361.504 188.995 356.959C190.78 352.414 193.314 347.949 193.29 343.066C193.275 340.051 192.271 337.133 191.9 334.14C190.469 322.594 198.401 312.035 200.232 300.545C200.894 296.389 200.517 291.592 197.368 288.8C194.608 286.353 190.564 286.168 186.877 286.255C177.234 286.484 167.447 287.69 158.037 285.57C148.627 283.45 139.372 277.016 137.429 267.568C167.742 268.382 198.054 269.194 228.365 270.006Z" fill="black"/>
</g>
<path d="M137.051 162.41L106.562 154.188C106.562 154.188 113.101 134.846 118.187 120.873C122.671 108.553 130.214 103.421 134.127 100.633C135.716 99.501 137.546 98.773 139.479 98.515C146.691 97.551 166.419 94.96 176.204 94.145C188.313 93.136 213.59 99.798 213.59 99.798C213.59 99.798 235.766 112.095 243.243 117.06C245.076 118.277 246.474 120.033 247.242 122.095C248.625 125.813 250.382 132.203 252.49 140.468C253.83 145.723 258.263 163.111 258.263 163.111L232.262 162.312C227.023 178.222 222.169 192.512 222.169 192.512L226.878 221.776C226.878 221.776 191.338 235.989 182.256 234.98C173.174 233.971 132.023 218.076 132.023 218.076C132.023 218.076 136.732 171.658 136.732 170.312C136.733 169.808 136.875 166.435 137.051 162.41Z" fill="#FA1239"/>
<g opacity="0.3">
<path d="M167.041 131.462C168.95 129.034 172.281 128.034 175.354 128.343C178.427 128.653 181.276 130.103 183.831 131.838C191.713 137.189 197.306 145.25 202.26 153.388C210.887 167.561 218.15 182.564 223.918 198.121L223.715 202.105C217.251 201.29 213.033 195.839 210.228 189.959C207.423 184.079 206.215 177.564 203.741 171.537C199.039 160.08 189.609 150.649 178.154 145.946C174.303 146.344 170.163 145.107 167.645 142.167C165.124 139.225 164.648 134.506 167.041 131.462Z" fill="black"/>
</g>
<path d="M136.76 167.46C136.903 167.473 137.766 159.029 138.687 148.602C139.608 138.172 140.239 129.709 140.096 129.697C139.953 129.684 139.09 138.127 138.169 148.557C137.248 158.983 136.617 167.448 136.76 167.46Z" fill="#032433"/>
<path d="M239.189 129.697C239.154 129.69 239.019 130.157 238.806 131.008C238.581 131.96 238.294 133.173 237.951 134.622C237.251 137.678 236.32 141.908 235.322 146.586C234.324 151.266 233.45 155.508 232.842 158.584C232.564 160.047 232.331 161.271 232.149 162.233C231.997 163.097 231.929 163.579 231.964 163.586C231.999 163.594 232.134 163.127 232.347 162.276C232.572 161.324 232.859 160.112 233.202 158.662C233.902 155.606 234.834 151.375 235.831 146.695C236.829 142.016 237.703 137.774 238.311 134.697C238.589 133.234 238.822 132.01 239.004 131.048C239.157 130.186 239.224 129.705 239.189 129.697Z" fill="#032433"/>
<path d="M141.406 98.881C141.255 98.922 142.133 102.305 142.737 106.559C143.357 110.812 143.468 114.304 143.624 114.301C143.692 114.3 143.751 113.424 143.722 112.005C143.693 110.588 143.559 108.629 143.252 106.484C142.942 104.341 142.519 102.424 142.147 101.056C141.776 99.687 141.472 98.863 141.406 98.881Z" fill="#032433"/>
<path d="M137.051 162.41C137.325 162.491 129.304 190.057 129.304 190.057L152.878 188.138L164.128 201.929L123.951 216.729C123.951 216.729 99.0601 205.629 99.0601 204.62C99.0601 203.611 108.013 154.579 108.013 154.579L137.051 162.41Z" fill="#FFBC96"/>
<path d="M154.397 165.607C154.426 165.557 153.826 165.716 153.19 165.038C152.896 164.711 152.624 164.171 152.676 163.523C152.718 162.882 153.249 162.206 154.046 161.933C154.833 161.638 155.872 161.738 156.663 162.41C157.059 162.734 157.393 163.167 157.643 163.667C157.767 163.917 157.871 164.184 157.948 164.464C158.02 164.742 158.107 165.05 157.983 165.231C157.87 165.417 157.561 165.472 157.294 165.407C157.03 165.346 156.774 165.151 156.592 164.921C156.222 164.446 156.109 163.741 156.314 163.132C156.755 161.877 158.518 161.326 159.851 161.966C160.533 162.259 161.146 162.769 161.637 163.38C161.87 163.677 162.057 164.036 162.09 164.388C162.127 164.733 161.921 165.053 161.6 165.117C161.276 165.18 160.876 165.033 160.606 164.777C160.333 164.532 160.188 164.135 160.15 163.743C160.09 162.945 160.507 162.087 161.197 161.623C161.899 161.152 162.846 161.069 163.705 161.303C164.579 161.523 165.366 162.077 165.728 162.916C165.912 163.319 165.964 163.781 165.79 164.142C165.604 164.507 165.224 164.731 164.793 164.7C164.369 164.677 163.936 164.447 163.703 164.097C163.471 163.75 163.434 163.263 163.582 162.835C163.858 161.932 164.806 161.381 165.789 161.444C166.778 161.469 167.705 161.999 168.471 162.705C168.851 163.063 169.246 163.443 169.515 163.861C169.785 164.275 169.974 164.8 169.806 165.16C169.647 165.544 169.15 165.638 168.737 165.43C168.327 165.241 168.122 164.772 168.126 164.275C168.14 163.268 168.804 162.264 169.696 161.711C170.591 161.133 171.764 161.045 172.766 161.462C173.263 161.663 173.723 161.987 174.059 162.393C174.387 162.801 174.601 163.331 174.52 163.805C174.417 164.817 172.761 165.018 172.222 164.171C171.624 163.325 171.99 161.99 172.911 161.468C173.826 160.883 175.025 160.908 176.051 161.298C176.572 161.489 177.07 161.753 177.548 162.051C178.02 162.346 178.462 162.682 178.733 163.108C179.019 163.53 179.047 164.034 178.825 164.459C178.616 164.883 178.153 165.039 177.766 164.802C177.369 164.577 177.171 164.106 177.229 163.623C177.276 163.137 177.515 162.659 177.836 162.27C178.484 161.485 179.524 161.04 180.513 161.163C181.499 161.27 182.444 161.886 182.866 162.737C183.068 163.161 183.137 163.666 182.952 164.04C182.774 164.423 182.35 164.604 181.913 164.528C181.481 164.464 181.074 164.188 180.918 163.803C180.744 163.407 180.773 162.931 180.945 162.514C181.278 161.648 182.164 161.152 183.07 160.97C183.986 160.785 184.955 160.786 185.813 161.05C186.654 161.301 187.436 161.915 187.566 162.724C187.713 163.52 187.319 164.479 186.599 164.698C185.864 164.936 185.09 164.29 184.905 163.562C184.701 162.822 185.028 162.013 185.528 161.439C186.041 160.863 186.722 160.456 187.451 160.29C188.905 159.934 190.46 160.356 191.436 161.278C191.918 161.739 192.292 162.317 192.41 162.927C192.546 163.533 192.344 164.158 191.898 164.513C191.466 164.893 190.834 164.832 190.448 164.469C190.042 164.12 189.892 163.579 189.959 163.084C190.1 162.072 190.832 161.314 191.566 160.925C192.318 160.523 193.114 160.456 193.753 160.593C194.397 160.732 194.893 161.028 195.238 161.317C195.93 161.913 196.087 162.407 196.12 162.382C196.12 162.382 196.091 162.262 195.974 162.054C195.857 161.848 195.66 161.546 195.311 161.233C194.966 160.921 194.462 160.597 193.789 160.433C193.121 160.271 192.274 160.323 191.468 160.735C190.681 161.137 189.878 161.921 189.7 163.05C189.614 163.602 189.779 164.26 190.259 164.681C190.702 165.132 191.557 165.224 192.089 164.753C192.637 164.335 192.883 163.561 192.732 162.866C192.601 162.164 192.199 161.539 191.676 161.025C190.612 160.007 188.95 159.54 187.359 159.913C186.563 160.089 185.798 160.532 185.221 161.173C184.663 161.81 184.251 162.73 184.497 163.675C184.623 164.131 184.895 164.549 185.288 164.841C185.676 165.136 186.223 165.273 186.724 165.119C187.232 164.977 187.61 164.56 187.813 164.114C188.025 163.662 188.094 163.151 188.013 162.648C187.833 161.588 186.889 160.893 185.953 160.604C184.991 160.307 183.968 160.306 182.97 160.5C181.99 160.686 180.904 161.262 180.486 162.33C180.274 162.838 180.221 163.453 180.458 164.001C180.696 164.571 181.252 164.938 181.835 165.028C182.412 165.151 183.144 164.861 183.409 164.264C183.687 163.679 183.57 163.037 183.33 162.517C182.803 161.463 181.728 160.782 180.571 160.643C179.399 160.498 178.186 161.016 177.427 161.931C177.05 162.389 176.762 162.943 176.697 163.573C176.613 164.192 176.89 164.932 177.498 165.268C177.79 165.441 178.18 165.511 178.528 165.393C178.88 165.281 179.148 165.009 179.301 164.713C179.629 164.131 179.556 163.345 179.19 162.819C178.841 162.274 178.334 161.905 177.836 161.591C177.336 161.279 176.807 160.996 176.237 160.786C175.115 160.36 173.722 160.301 172.616 161.007C171.487 161.663 170.959 163.321 171.776 164.491C172.184 165.082 172.945 165.335 173.609 165.232C173.945 165.182 174.283 165.056 174.552 164.817C174.821 164.58 175.007 164.241 175.058 163.897C175.168 163.191 174.874 162.545 174.483 162.051C174.072 161.555 173.546 161.193 172.969 160.958C171.823 160.477 170.442 160.582 169.407 161.254C168.38 161.907 167.615 163.016 167.588 164.278C167.571 164.888 167.867 165.62 168.5 165.912C168.799 166.055 169.143 166.119 169.489 166.04C169.839 165.963 170.145 165.704 170.288 165.382C170.568 164.685 170.25 164.056 169.957 163.578C169.629 163.078 169.225 162.701 168.821 162.32C168.01 161.574 166.96 160.959 165.804 160.933C165.236 160.916 164.649 161.036 164.152 161.341C163.65 161.651 163.282 162.134 163.101 162.682C162.918 163.227 162.949 163.871 163.288 164.379C163.63 164.876 164.189 165.162 164.768 165.197C165.354 165.249 165.976 164.898 166.228 164.36C166.487 163.809 166.386 163.201 166.168 162.724C165.742 161.735 164.787 161.086 163.825 160.853C162.862 160.596 161.779 160.684 160.942 161.249C160.113 161.823 159.64 162.807 159.712 163.782C159.747 164.757 160.631 165.72 161.689 165.534C162.236 165.434 162.573 164.844 162.503 164.358C162.449 163.873 162.222 163.475 161.955 163.132C161.419 162.475 160.761 161.934 160.002 161.613C158.511 160.92 156.515 161.51 155.984 163.024C155.749 163.753 155.885 164.556 156.334 165.127C156.566 165.406 156.857 165.634 157.223 165.719C157.562 165.792 158.004 165.756 158.243 165.396C158.453 165.014 158.295 164.668 158.232 164.386C158.146 164.089 158.032 163.807 157.896 163.542C157.623 163.013 157.26 162.554 156.826 162.21C155.962 161.494 154.808 161.399 153.972 161.736C153.115 162.048 152.543 162.799 152.513 163.512C152.476 164.222 152.786 164.78 153.109 165.115C153.815 165.804 154.435 165.591 154.397 165.607Z" fill="#032433"/>
<path d="M196.327 162.72L210.085 214.724L166.335 216.1L152.578 164.741L196.327 162.72Z" fill="#455A64"/>
<path d="M196.327 162.72L198.077 162.888L211.957 210.919L209.845 213.816L196.327 162.72Z" fill="#E0E0E0"/>
<path d="M167.361 175.978H153.152C153.152 175.978 150.966 175.841 150.009 178.027C149.053 180.213 149.189 182.126 149.189 182.126C149.189 182.126 148.369 183.082 148.233 184.995C148.096 186.908 148.096 192.373 148.233 192.783C148.37 193.193 149.872 193.603 149.872 193.603C149.872 193.603 148.916 195.789 149.735 197.429C150.555 199.069 151.784 199.478 151.784 199.478C151.784 199.478 153.697 203.85 155.61 204.397C157.523 204.944 159.299 204.397 160.255 204.397C161.211 204.397 176.65 196.473 176.65 196.473V194.697C176.65 194.697 182.115 195.244 182.252 192.238C182.389 189.232 178.7 189.411 178.7 189.411H170.366C170.366 189.411 179.52 189.778 180.34 188.412C181.16 187.046 182.252 183.767 179.452 183.22C176.651 182.673 164.011 182.673 164.011 182.673L157.114 183.815H156.021L156.873 180.778C156.873 180.778 164.12 180.76 165.194 180.623C166.268 180.486 168.317 180.213 168.317 178.3C168.318 176.388 167.361 175.978 167.361 175.978Z" fill="#FFBC96"/>
<path d="M159.374 190.251C159.374 190.324 160.387 190.404 162.029 190.429C163.67 190.455 165.939 190.414 168.439 190.253C170.94 190.09 173.196 189.838 174.82 189.601C176.445 189.365 177.439 189.154 177.429 189.082C177.419 189.004 176.407 189.079 174.776 189.216C173.145 189.354 170.894 189.544 168.404 189.706C165.914 189.866 163.658 189.968 162.023 190.041C160.388 190.116 159.375 190.173 159.374 190.251Z" fill="#654742"/>
<path d="M160.668 197.928C160.676 198.001 161.579 197.98 163.033 197.854C164.486 197.728 166.489 197.489 168.686 197.133C170.884 196.776 172.859 196.369 174.277 196.028C175.696 195.688 176.56 195.422 176.544 195.35C176.527 195.274 175.634 195.406 174.2 195.648C172.554 195.925 170.674 196.242 168.598 196.592C166.519 196.917 164.635 197.211 162.986 197.469C161.548 197.694 160.659 197.851 160.668 197.928Z" fill="#654742"/>
<path d="M148.77 187.176C148.757 187.155 148.561 187.233 148.268 187.48C147.981 187.727 147.592 188.162 147.342 188.835C147.095 189.494 146.993 190.431 147.4 191.356C147.791 192.263 148.654 193.134 149.85 193.425L149.689 193.03C149.023 194.028 148.869 195.428 149.283 196.69C149.684 197.952 150.623 198.994 151.742 199.417L151.585 199.238C152.18 201.502 153.564 203.068 154.659 203.902C155.211 204.328 155.696 204.597 156.038 204.755C156.383 204.909 156.579 204.967 156.59 204.941C156.627 204.871 155.877 204.54 154.865 203.652C153.865 202.779 152.612 201.244 152.089 199.111L152.057 198.981L151.931 198.931C150.98 198.554 150.162 197.644 149.804 196.52C149.436 195.395 149.57 194.174 150.125 193.311L150.327 192.997L149.964 192.916C148.953 192.69 148.169 191.953 147.802 191.171C147.42 190.381 147.463 189.555 147.648 188.935C148.053 187.67 148.839 187.236 148.77 187.176Z" fill="#654742"/>
<path d="M182.257 119.577L173.485 101.881L176.205 94.144C176.205 94.144 163.045 87.315 167.542 73.374C169.714 66.642 175.313 53.144 180.524 40.986C186.127 27.91 200.83 21.328 214.315 25.862L215.655 26.312C229.816 32.013 232.886 47.225 226.795 61.223L208.99 113.247L182.257 119.577Z" fill="#FFBC96"/>
<path d="M176.192 94.13C176.192 94.13 184.727 97.794 196.022 95.072C196.022 95.072 188.384 103.625 174.95 97.716L176.192 94.13Z" fill="#654742"/>
<path d="M180.058 51.97C179.669 53.004 180.224 54.187 181.297 54.613C182.368 55.038 183.553 54.547 183.942 53.513C184.331 52.478 183.777 51.294 182.706 50.869C181.633 50.443 180.447 50.936 180.058 51.97Z" fill="#032433"/>
<path d="M181.264 47.9771C181.423 48.3181 183.298 47.711 185.43 48.435C187.57 49.127 188.766 50.7511 189.086 50.5671C189.239 50.4891 189.145 49.938 188.63 49.213C188.125 48.493 187.142 47.6271 185.811 47.1861C184.48 46.7471 183.197 46.86 182.386 47.144C181.562 47.427 181.182 47.8201 181.264 47.9771Z" fill="#032433"/>
<path d="M199.689 58.489C199.3 59.524 199.855 60.7061 200.928 61.1321C201.999 61.5571 203.184 61.0661 203.573 60.0311C203.962 58.9961 203.407 57.8131 202.336 57.3871C201.263 56.9611 200.078 57.454 199.689 58.489Z" fill="#032433"/>
<path d="M201.99 54.298C202.111 54.654 204.044 54.256 206.083 55.205C208.135 56.124 209.149 57.8691 209.486 57.7211C209.646 57.6601 209.615 57.104 209.179 56.326C208.755 55.555 207.872 54.588 206.597 54.005C205.321 53.424 204.034 53.398 203.196 53.592C202.347 53.785 201.926 54.133 201.99 54.298Z" fill="#032433"/>
<path d="M189.001 69.4451C189.052 69.3271 187.803 68.6521 185.746 67.6541C185.22 67.4151 184.741 67.133 184.774 66.73C184.778 66.293 185.203 65.782 185.681 65.237C186.637 64.091 187.637 62.8891 188.687 61.6301C192.911 56.4761 196.164 52.163 195.955 51.995C195.745 51.827 192.152 55.8681 187.929 61.0221C186.901 62.2971 185.919 63.513 184.982 64.676C184.568 65.226 183.977 65.8091 183.98 66.7201C183.99 67.1761 184.29 67.6071 184.608 67.8181C184.921 68.0421 185.226 68.151 185.49 68.258C187.614 69.103 188.952 69.5631 189.001 69.4451Z" fill="#032433"/>
<path d="M204.888 46.86C204.903 47.511 207.126 47.952 209.528 49.096C211.953 50.191 213.725 51.603 214.232 51.195C214.464 50.996 214.295 50.332 213.668 49.495C213.048 48.663 211.936 47.695 210.49 47.023C209.043 46.354 207.586 46.129 206.55 46.194C205.506 46.254 204.89 46.554 204.888 46.86Z" fill="#032433"/>
<path d="M183.806 42.238C184.018 42.849 185.657 42.84 187.433 43.411C189.228 43.92 190.587 44.834 191.102 44.443C191.336 44.248 191.264 43.683 190.764 43.005C190.273 42.331 189.321 41.595 188.094 41.223C186.867 40.853 185.666 40.938 184.885 41.228C184.093 41.516 183.72 41.946 183.806 42.238Z" fill="#032433"/>
<path d="M222.203 71.122C222.474 71.099 232.691 71.508 229.196 80.898C225.701 90.288 216.995 84.8421 217.078 84.5671C217.163 84.2921 222.203 71.122 222.203 71.122Z" fill="#FFBC96"/>
<path d="M221.271 82.077C221.323 82.062 221.392 82.252 221.621 82.482C221.844 82.705 222.276 82.9631 222.834 82.9621C223.962 82.9671 225.383 81.7031 226.059 80.0281C226.401 79.1821 226.524 78.3021 226.473 77.5161C226.442 76.7221 226.176 76.0771 225.71 75.8021C225.256 75.5021 224.791 75.6691 224.578 75.8911C224.354 76.1071 224.344 76.316 224.288 76.314C224.253 76.328 224.145 76.0811 224.365 75.7221C224.473 75.5501 224.666 75.37 224.953 75.271C225.247 75.171 225.613 75.2011 225.947 75.3691C226.653 75.6891 227.056 76.5981 227.114 77.4611C227.21 78.3431 227.091 79.3401 226.707 80.2891C225.943 82.1591 224.315 83.5691 222.812 83.4561C222.087 83.3831 221.61 82.9781 221.408 82.6511C221.204 82.3101 221.232 82.082 221.271 82.077Z" fill="#654742"/>
<path d="M194.784 73.032C194.444 72.895 193.661 75.21 191.126 76.187C188.593 77.171 186.212 76.081 186.084 76.398C186.003 76.532 186.483 77.033 187.515 77.411C188.525 77.79 190.128 77.963 191.68 77.366C193.228 76.764 194.201 75.594 194.599 74.671C195.012 73.732 194.947 73.072 194.784 73.032Z" fill="#032433"/>
<path d="M177.128 20.452C177.946 18.709 179.746 17.513 181.646 17.288C181.843 16.745 182.07 16.233 182.342 15.774C184.067 12.862 187.946 11.286 191.09 12.538C192.419 10.292 195.044 8.88003 197.65 9.00803C200.256 9.13603 202.73 10.799 203.832 13.164C206.871 11.884 210.649 12.611 212.996 14.928C213.291 15.219 213.574 15.55 213.663 15.955C213.722 16.221 213.659 16.514 213.506 16.732C214.849 15.62 216.75 15.206 218.424 15.704C218.995 15.874 219.524 16.156 220.003 16.507C221.444 17.174 222.65 18.3 223.224 19.799C227.467 19.718 231.444 23.352 231.746 27.585C234.791 28.791 236.918 32.01 236.834 35.285C238.769 36.119 240.196 38.032 240.443 40.124C240.69 42.217 239.748 44.409 238.06 45.671C238.06 45.671 244.2 49.414 240.482 54.767C238.582 57.502 234.686 55.607 234.686 55.607L223.147 73.071C223.197 73.194 221.161 75.006 220.179 74.139C219.197 73.272 218.943 71.872 218.636 70.599C218.285 69.14 217.787 67.675 217.906 66.179C218.025 64.683 218.982 63.116 220.465 62.885C219.007 61.792 218.511 59.765 218.772 57.962C219.033 56.159 219.922 54.517 220.797 52.918C222.087 50.559 223.378 48.201 224.668 45.842C221.256 44.601 218.678 41.319 218.283 37.709C215.187 38.781 211.405 36.387 211.05 33.13C208.807 36.162 203.999 36.87 200.977 34.612C200.693 36.703 196.553 37.344 194.447 37.213C192.341 37.082 190.376 34.904 190.376 34.904C190.376 34.904 187.894 35.43 186.073 34.994H186.072C186.001 34.977 185.93 34.96 185.861 34.94C183.092 34.3 181.291 30.986 180.784 28.194C180.074 28.022 179.394 27.731 178.809 27.287C176.79 25.752 176.05 22.749 177.128 20.452Z" fill="#032433"/>
<path d="M255.116 163.014C255.116 163.014 261.203 185.055 262.549 190.437C263.895 195.819 263.88 208.32 260.852 212.02C257.825 215.72 247.734 218.075 247.734 218.075C247.734 218.075 227.971 208.423 221.244 196.65C214.517 184.877 196.118 152.855 196.118 152.855L201.949 136.864L232.581 166.114L232.264 162.311L255.116 163.014Z" fill="#FFBC96"/>
<path d="M191.129 86.434C190.066 85.894 188.766 86.321 188.231 87.386L170.601 122.498L175.126 124.509L192.092 89.285C192.6 88.231 192.172 86.964 191.129 86.434Z" fill="#455A64"/>
<path d="M202.926 137.873L186.441 120.873H170.643L160.524 134.23C160.524 134.23 165.32 135.125 167.037 132.55L169.269 129.373C169.269 129.373 167.037 134.267 168.239 136.671C168.239 136.671 170.607 142.255 170.986 142.853C171.701 143.978 172.252 144.697 174.313 144.354C176.374 144.011 179.572 142.338 179.229 141.136C178.886 139.934 177.684 139.762 177.684 139.762L182.492 139.075C182.492 139.075 187.334 147.846 190.254 149.907C193.173 151.968 196.117 152.855 196.117 152.855L202.926 137.873Z" fill="#FFBC96"/>
<path d="M231.964 165.604C231.927 165.685 233.297 166.32 235.393 167.545C237.49 168.766 240.282 170.641 243.047 173.101C245.807 175.569 247.988 178.129 249.44 180.073C250.895 182.016 251.682 183.304 251.758 183.259C251.789 183.241 251.62 182.903 251.287 182.305C250.96 181.704 250.434 180.864 249.738 179.857C248.351 177.842 246.187 175.209 243.394 172.712C240.596 170.222 237.734 168.371 235.574 167.223C234.495 166.646 233.6 166.219 232.966 165.963C232.334 165.7 231.979 165.571 231.964 165.604Z" fill="#654742"/>
<path d="M182.819 125.812C182.825 125.74 181.94 125.596 180.504 125.421C179.068 125.246 177.081 125.04 174.882 124.844C174.331 124.795 173.768 124.757 173.215 124.841C172.66 124.923 172.149 125.149 171.734 125.436C170.894 126.017 170.391 126.797 170.063 127.453C169.437 128.794 169.276 129.679 169.322 129.697C169.408 129.733 169.704 128.869 170.387 127.627C170.74 127.021 171.241 126.328 172 125.835C172.377 125.59 172.811 125.41 173.288 125.345C173.768 125.278 174.289 125.313 174.835 125.362C177.032 125.558 179.025 125.706 180.47 125.787C181.916 125.869 182.813 125.883 182.819 125.812Z" fill="#654742"/>
<path d="M170.236 141.994C170.322 141.985 170.169 140.794 170.273 138.883C170.327 137.929 170.457 136.796 170.731 135.565C171.001 134.363 171.382 132.924 172.589 132.225C173.18 131.874 173.864 131.697 174.532 131.538C175.203 131.386 175.852 131.238 176.478 131.095C177.718 130.825 178.843 130.652 179.795 130.584C181.702 130.448 182.871 130.752 182.889 130.662C182.896 130.635 182.616 130.515 182.081 130.405C181.547 130.292 180.756 130.195 179.778 130.216C178.8 130.238 177.642 130.377 176.383 130.624C175.752 130.745 175.097 130.888 174.417 131.04C173.738 131.196 173.005 131.374 172.322 131.777C171.629 132.174 171.133 132.835 170.843 133.496C170.544 134.162 170.39 134.835 170.261 135.465C170.007 136.732 169.912 137.896 169.905 138.87C169.898 139.845 169.968 140.631 170.046 141.169C170.125 141.707 170.203 141.998 170.236 141.994Z" fill="#654742"/>
<path d="M175.954 136.289C175.824 136.289 175.72 137.659 175.705 139.455L175.702 139.762L176.018 139.705C176.185 139.675 176.362 139.653 176.544 139.654C177.497 139.657 178.294 140.166 178.728 140.618C179.172 141.081 179.317 141.482 179.396 141.456C179.454 141.447 179.437 140.977 179.01 140.381C178.596 139.805 177.702 139.14 176.546 139.133C176.325 139.131 176.109 139.16 175.906 139.203L176.219 139.453C176.194 137.658 176.083 136.288 175.954 136.289Z" fill="#654742"/>
<path d="M175.939 136.816C175.972 136.962 177.389 136.751 179.141 136.662C180.893 136.564 182.325 136.624 182.342 136.474C182.362 136.338 180.917 136.042 179.113 136.141C177.31 136.235 175.905 136.683 175.939 136.816Z" fill="#654742"/>
<path d="M182.085 135.991C181.951 136.005 182.061 137.554 182.798 139.299C183.525 141.048 184.552 142.213 184.656 142.127C184.78 142.038 183.976 140.78 183.278 139.098C182.568 137.42 182.235 135.965 182.085 135.991Z" fill="#654742"/>
<path d="M118.922 328.221L120.348 373.492L64.0325 375.554C64.1645 370.163 92.9035 358.295 92.9035 358.295L90.7995 329.326L118.922 328.221Z" fill="#FA1239"/>
<g opacity="0.6">
<path d="M110.228 355.218C111.329 355.476 112.127 356.674 111.914 357.784C111.702 358.895 110.491 359.716 109.385 359.478C108.28 359.239 107.278 357.83 107.613 356.751C107.949 355.671 109.424 354.784 110.439 355.281" fill="white"/>
</g>
<g opacity="0.6">
<path d="M120.348 373.492L120.026 368.935L66.1525 372.617C66.1525 372.617 63.6855 373.8 64.0335 375.555L120.348 373.492Z" fill="white"/>
</g>
<path d="M91.98 358.043C91.999 358.318 93.379 358.392 94.764 359.227C96.171 360.025 96.912 361.191 97.161 361.073C97.413 361.01 96.942 359.382 95.247 358.4C93.561 357.403 91.911 357.792 91.98 358.043Z" fill="#032433"/>
<path d="M86.1625 360.702C86.1095 360.971 87.3176 361.395 88.2936 362.524C89.3036 363.624 89.5856 364.873 89.8586 364.851C90.1186 364.885 90.2495 363.267 89.0085 361.887C87.7815 360.495 86.1595 360.439 86.1625 360.702Z" fill="#032433"/>
<path d="M83.0663 367.894C83.3183 367.943 83.6513 366.555 82.8893 365.075C82.1383 363.589 80.8203 363.043 80.7123 363.276C80.5653 363.508 81.4303 364.285 82.0363 365.51C82.6713 366.72 82.7923 367.877 83.0663 367.894Z" fill="#032433"/>
<path d="M92.2336 351.387C92.3576 351.633 93.6056 351.208 95.1636 351.256C96.7226 351.273 97.9516 351.75 98.0866 351.51C98.2386 351.305 97.0206 350.331 95.1846 350.299C93.3486 350.254 92.0906 351.177 92.2336 351.387Z" fill="#032433"/>
<path d="M93.3291 344.657C93.3301 344.771 94.4231 344.901 96.1491 344.539C97.0081 344.358 98.0161 344.038 99.0661 343.525C99.5911 343.267 100.126 342.963 100.654 342.606C100.907 342.43 101.209 342.25 101.481 341.911C101.775 341.613 101.922 340.877 101.553 340.444C101.249 340.022 100.732 339.854 100.325 339.859C99.9091 339.86 99.5761 339.957 99.2731 340.044C98.6511 340.219 98.0711 340.449 97.5421 340.71C96.4841 341.239 95.6321 341.89 95.0041 342.512C93.7411 343.77 93.3331 344.813 93.4291 344.863C93.5571 344.949 94.1611 344.065 95.4541 343.018C96.0991 342.497 96.9271 341.952 97.9181 341.509C98.4141 341.29 98.9511 341.098 99.5191 340.95C100.11 340.772 100.617 340.749 100.78 341.009C100.84 341.108 100.848 341.148 100.73 341.327C100.607 341.493 100.371 341.659 100.122 341.834C99.6361 342.177 99.1451 342.478 98.6631 342.74C97.6981 343.263 96.7712 343.631 95.9752 343.885C94.3782 344.393 93.3191 344.508 93.3291 344.657Z" fill="#032433"/>
<path d="M93.7025 345.038C93.8015 345.077 94.3105 344.072 94.3465 342.287C94.3605 341.402 94.2305 340.335 93.8485 339.213C93.6545 338.654 93.3975 338.084 93.0675 337.527C92.7175 336.983 92.2876 336.252 91.2166 336.169C90.6586 336.168 90.2115 336.62 90.0675 336.998C89.8955 337.386 89.8705 337.714 89.8165 338.043C89.7375 338.705 89.7736 339.349 89.8846 339.943C90.1056 341.135 90.6325 342.114 91.1955 342.812C92.3495 344.231 93.5085 344.518 93.5285 344.423C93.6155 344.282 92.6375 343.786 91.7435 342.414C91.3035 341.738 90.9005 340.84 90.7545 339.797C90.6805 339.277 90.6685 338.724 90.7465 338.165C90.8125 337.563 91.0195 337.072 91.2455 337.125C91.5255 337.11 92.0175 337.544 92.2655 338.013C92.5735 338.507 92.8225 339.016 93.0205 339.516C93.4105 340.521 93.6006 341.489 93.6696 342.311C93.8066 343.961 93.5505 345.001 93.7025 345.038Z" fill="#032433"/>
<path d="M203.398 328.551L189.138 371.542L242.534 389.556C243.943 384.35 219.774 364.79 219.774 364.79L230.041 337.62L203.398 328.551Z" fill="#FA1239"/>
<g opacity="0.6">
<path d="M204.042 356.906C202.913 356.84 201.807 357.761 201.695 358.886C201.583 360.011 202.509 361.144 203.637 361.23C204.764 361.316 206.126 360.251 206.112 359.12C206.098 357.989 204.937 356.719 203.822 356.906" fill="white"/>
</g>
<g opacity="0.6">
<path d="M189.138 371.542L190.745 367.265L241.339 386.136C241.339 386.136 243.367 387.973 242.534 389.556L189.138 371.542Z" fill="white"/>
</g>
<path d="M220.729 364.81C220.633 365.068 219.289 364.746 217.723 365.152C216.146 365.516 215.104 366.423 214.899 366.239C214.676 366.107 215.59 364.68 217.495 364.222C219.395 363.747 220.867 364.59 220.729 364.81Z" fill="#032433"/>
<path d="M225.549 369.016C225.524 369.289 224.244 369.351 222.987 370.155C221.706 370.922 221.08 372.039 220.824 371.94C220.565 371.898 220.9 370.31 222.483 369.34C224.057 368.357 225.628 368.766 225.549 369.016Z" fill="#032433"/>
<path d="M226.468 376.792C226.212 376.767 226.289 375.342 227.44 374.14C228.583 372.929 230.003 372.781 230.04 373.035C230.115 373.299 229.065 373.798 228.134 374.8C227.181 375.779 226.735 376.854 226.468 376.792Z" fill="#032433"/>
<path d="M222.383 358.358C222.194 358.559 221.119 357.796 219.611 357.398C218.112 356.97 216.798 357.078 216.737 356.809C216.65 356.57 218.095 355.982 219.864 356.475C221.637 356.954 222.58 358.197 222.383 358.358Z" fill="#032433"/>
<path d="M223.249 351.594C223.216 351.703 222.131 351.516 220.579 350.678C219.808 350.26 218.932 349.666 218.071 348.875C217.641 348.479 217.215 348.034 216.81 347.542C216.617 347.301 216.38 347.043 216.215 346.641C216.018 346.272 216.087 345.525 216.564 345.214C216.976 344.896 217.519 344.882 217.907 345.003C218.305 345.123 218.597 345.31 218.863 345.48C219.409 345.825 219.9 346.21 220.333 346.611C221.196 347.419 221.828 348.286 222.253 349.062C223.105 350.627 223.199 351.744 223.093 351.764C222.946 351.81 222.618 350.791 221.677 349.418C221.207 348.735 220.568 347.977 219.745 347.27C219.332 346.919 218.872 346.582 218.369 346.279C217.854 345.94 217.374 345.773 217.144 345.976C217.059 346.054 217.039 346.09 217.102 346.295C217.173 346.489 217.351 346.716 217.541 346.955C217.909 347.422 218.294 347.851 218.681 348.239C219.457 349.015 220.241 349.631 220.932 350.102C222.318 351.043 223.301 351.454 223.249 351.594Z" fill="#032433"/>
<path d="M222.783 351.853C222.677 351.862 222.475 350.753 222.949 349.032C223.187 348.18 223.616 347.194 224.301 346.227C224.646 345.747 225.054 345.273 225.53 344.833C226.021 344.411 226.641 343.833 227.691 344.058C228.226 344.216 228.526 344.777 228.556 345.18C228.611 345.601 228.541 345.923 228.5 346.253C228.388 346.91 228.17 347.517 227.894 348.055C227.343 349.135 226.558 349.923 225.82 350.432C224.31 351.464 223.116 351.408 223.125 351.312C223.082 351.152 224.161 350.955 225.408 349.895C226.022 349.372 226.664 348.626 227.102 347.668C227.321 347.191 227.49 346.664 227.574 346.106C227.682 345.51 227.624 344.981 227.391 344.967C227.127 344.873 226.532 345.148 226.16 345.527C225.724 345.913 225.341 346.33 225.008 346.753C224.348 347.605 223.89 348.48 223.59 349.247C222.989 350.791 222.939 351.862 222.783 351.853Z" fill="#032433"/>
<path d="M216.253 226.428C216.253 226.428 237.173 207.874 246.352 208.031C255.532 208.188 285.647 206.189 273.018 247.908C260.283 289.978 237.49 354.304 236.869 351.995L197.638 334.75L213.577 274.914C213.577 274.914 160.101 275.513 149.774 274.158C139.447 272.804 120.13 259.203 120.13 259.203L123.202 334.811L82.2046 332.528C82.2046 332.528 76.4476 241.707 74.7896 223.04C73.3456 206.787 91.6096 188.549 110.233 192.663C122.399 195.351 165.885 226.049 165.885 226.049L216.253 226.428Z" fill="#032433"/>
<path d="M118.723 219C118.676 219.005 118.694 219.711 118.769 220.982C118.841 222.38 118.934 224.189 119.046 226.364C119.258 230.909 119.403 237.194 119.512 244.14C119.623 251.089 119.753 257.384 119.995 261.937C120.106 264.213 120.242 266.054 120.363 267.323C120.486 268.593 120.576 269.292 120.624 269.288C120.671 269.285 120.671 268.579 120.631 267.306C120.593 265.907 120.542 264.096 120.483 261.918C120.409 257.241 120.311 251.013 120.202 244.128C120.093 237.179 119.87 230.883 119.533 226.335C119.371 224.061 119.197 222.223 119.037 220.958C118.879 219.693 118.77 218.996 118.723 219Z" fill="#455A64"/>
<path d="M120.382 254.404C120.444 254.455 121.208 253.678 122.191 252.221C123.174 250.769 124.323 248.601 125.126 246.034C125.923 243.464 126.209 241.027 126.224 239.273C126.243 237.516 126.055 236.443 125.975 236.449C125.749 236.443 126.067 240.801 124.469 245.828C122.929 250.874 120.193 254.28 120.382 254.404Z" fill="#455A64"/>
<path d="M176.176 269.723C176.242 269.729 176.331 268.689 176.644 266.842C176.936 264.992 177.576 262.341 178.796 259.229C180.005 256.116 181.96 252.6 184.722 249.16C187.52 245.748 191.201 242.499 195.694 240.052C204.588 234.9 212.415 229.851 217.876 225.902C220.607 223.93 222.753 222.243 224.175 221.003C224.899 220.4 225.425 219.888 225.786 219.549C226.145 219.206 226.325 219.018 226.309 219C226.268 218.955 225.482 219.637 224.005 220.796C222.537 221.967 220.354 223.588 217.595 225.504C212.079 229.339 204.227 234.313 195.35 239.455C193.128 240.736 190.969 242.112 189.134 243.723C187.283 245.316 185.642 247.016 184.23 248.759C181.448 252.278 179.51 255.875 178.343 259.051C177.165 262.227 176.593 264.923 176.38 266.799C176.221 267.73 176.23 268.47 176.184 268.963C176.155 269.461 176.152 269.721 176.176 269.723Z" fill="#455A64"/>
<path d="M161.706 225.427C161.663 225.448 161.908 226.072 162.387 227.179C162.876 228.281 163.536 229.897 164.295 231.911C165.819 235.935 167.568 241.64 168.644 248.118C169.704 254.601 169.877 260.566 169.725 264.866C169.653 267.017 169.546 268.759 169.436 269.959C169.338 271.161 169.306 271.83 169.354 271.837C169.401 271.843 169.523 271.186 169.703 269.989C169.895 268.794 170.077 267.05 170.212 264.889C170.49 260.569 170.394 254.545 169.324 248.007C168.239 241.473 166.398 235.737 164.749 231.735C163.928 229.731 163.196 228.138 162.631 227.067C162.075 225.989 161.749 225.405 161.706 225.427Z" fill="#455A64"/>
<path d="M240.362 219.986C240.353 219.972 240.158 220.1 239.796 220.357C239.398 220.647 238.876 221.027 238.224 221.502C237.88 221.757 237.503 222.036 237.094 222.34C236.69 222.658 236.294 223.053 235.845 223.452C234.967 224.271 233.905 225.144 232.934 226.307C232.427 226.87 231.896 227.459 231.344 228.072C230.832 228.719 230.329 229.416 229.792 230.126C229.525 230.482 229.254 230.845 228.979 231.213C228.718 231.591 228.481 231.994 228.226 232.393C227.729 233.2 227.188 234.013 226.689 234.88C224.716 238.364 222.964 242.41 221.425 246.753C219.877 251.098 218.711 255.331 217.659 259.175C216.636 263.014 215.713 266.478 214.932 269.405C214.136 272.31 213.494 274.662 213.01 276.276C212.791 277.05 212.615 277.67 212.481 278.143C212.365 278.572 212.312 278.799 212.328 278.804C212.344 278.809 212.428 278.592 212.574 278.172C212.73 277.706 212.935 277.094 213.191 276.331C213.732 274.733 214.425 272.393 215.263 269.497C216.072 266.577 217.029 263.122 218.09 259.293C219.165 255.458 220.342 251.238 221.883 246.914C223.415 242.591 225.143 238.568 227.079 235.1C227.568 234.238 228.099 233.428 228.586 232.624C228.836 232.227 229.067 231.824 229.323 231.447C229.593 231.08 229.858 230.718 230.119 230.362C230.644 229.654 231.136 228.957 231.636 228.308C232.175 227.693 232.693 227.102 233.189 226.537C234.136 225.367 235.174 224.484 236.029 223.652C236.466 223.247 236.852 222.843 237.244 222.517C237.642 222.203 238.008 221.914 238.342 221.651C238.969 221.148 239.471 220.745 239.854 220.437C240.195 220.155 240.371 220 240.362 219.986Z" fill="#455A64"/>
<path d="M216.686 226.05C209.222 230.977 201.003 232.137 192.218 233.816C187.15 234.785 181.846 235.665 176.897 234.203C166.29 231.07 156.035 218.998 149.221 214.69L177.674 221.898L216.686 226.05Z" fill="#FA1239"/>
<g clip-path="url(#clip0_4_266)">
<path d="M67.7888 6.67185L27.2605 12.6026C25.5809 12.8483 24.0678 13.7512 23.0541 15.1126C22.0403 16.474 21.6088 18.1823 21.8546 19.8618L26.1173 48.9916L15.9852 50.4743C15.6493 50.5234 15.3467 50.704 15.1439 50.9763C14.9412 51.2485 14.8549 51.5902 14.904 51.9261L19.2594 81.6891C19.5329 83.5351 20.5269 85.1973 22.0236 86.3119C23.5202 87.4264 25.3976 87.9025 27.2445 87.6356L78.5383 80.1295C80.2178 79.8837 81.7309 78.9808 82.7446 77.6195C83.7584 76.2582 84.1899 74.5498 83.9441 72.8703L75.048 12.0777C74.8023 10.3982 73.8994 8.88516 72.538 7.87136C71.1767 6.85754 69.4683 6.42608 67.7888 6.67185ZM30.658 80.0211C30.83 81.1968 30.5281 82.3926 29.8184 83.3456C29.1087 84.2984 28.0496 84.9305 26.8739 85.1026C25.6982 85.2746 24.5024 84.9725 23.5494 84.2629C22.5965 83.5533 21.9645 82.4941 21.7924 81.3184L17.6224 52.8219L26.488 51.5246L30.658 80.0211ZM50.1367 18.6467L56.6465 17.6941C56.9824 17.645 57.3242 17.7313 57.5964 17.934C57.8686 18.1368 58.0492 18.4394 58.0984 18.7753C58.1475 19.1112 58.0612 19.4529 57.8585 19.7251C57.6558 19.9974 57.3531 20.178 57.0172 20.2272L50.558 21.1724C50.2221 21.2215 49.8804 21.1352 49.6082 20.9324C49.336 20.7297 49.1553 20.4271 49.1062 20.0912C49.057 19.7553 49.1434 19.4136 49.3461 19.1413C49.5488 18.8691 49.8515 18.6885 50.1873 18.6393L50.1367 18.6467ZM51.1931 25.8659L68.8736 23.2786C69.2095 23.2294 69.5512 23.3158 69.8234 23.5185C70.0956 23.7212 70.2763 24.0239 70.3254 24.3598C70.3746 24.6956 70.2882 25.0374 70.0855 25.3096C69.8828 25.5818 69.5801 25.7625 69.2443 25.8116L51.6144 28.3915C51.2785 28.4406 50.9368 28.3543 50.6646 28.1516C50.3924 27.9488 50.2117 27.6462 50.1626 27.3103C50.1134 26.9744 50.1998 26.6327 50.4025 26.3605C50.6052 26.0882 50.9079 25.9076 51.2438 25.8584L51.1931 25.8659ZM29.697 32.2585C29.8361 30.9792 30.2564 29.7464 30.9277 28.6485C31.5989 27.5507 32.5046 26.6147 33.5799 25.9078C32.81 25.28 32.2393 24.4416 31.9375 23.4951C31.6356 22.5486 31.6157 21.5348 31.8801 20.5771C32.1445 19.6195 32.6819 18.7594 33.4265 18.1018C34.1713 17.4442 35.0911 17.0175 36.0742 16.8736C37.0572 16.7298 38.0607 16.8751 38.9627 17.2917C39.8645 17.7083 40.6258 18.3783 41.1535 19.2201C41.6812 20.0618 41.9526 21.0389 41.9346 22.0322C41.9167 23.0255 41.6102 23.9922 41.0524 24.8143C42.305 25.1916 43.4569 25.8453 44.4233 26.727C45.3897 27.6088 46.1459 28.6962 46.6361 29.9091C46.7495 30.1498 46.7888 30.4186 46.7492 30.6817C46.7081 30.8257 46.6503 30.9644 46.5768 31.095C45.7174 32.3954 44.5933 33.4997 43.2777 34.3355C41.9622 35.1715 40.4849 35.7202 38.9427 35.9459C37.4005 36.1716 35.828 36.0691 34.328 35.6452C32.8282 35.2213 31.4347 34.4854 30.2388 33.4858C30.1034 33.3875 29.9886 33.2637 29.9008 33.1213C29.7382 32.8646 29.6664 32.5608 29.697 32.2585ZM76.1041 70.7447L37.6529 76.3714C37.317 76.4206 36.9752 76.3342 36.703 76.1315C36.4308 75.9288 36.2502 75.6261 36.201 75.2903C36.1519 74.9544 36.2382 74.6126 36.4409 74.3404C36.6436 74.0682 36.9463 73.8876 37.2822 73.8384L75.7335 68.2116C76.0693 68.1625 76.4111 68.2488 76.6833 68.4515C76.9555 68.6543 77.1362 68.9569 77.1853 69.2928C77.2345 69.6287 77.1481 69.9704 76.9454 70.2426C76.7427 70.5149 76.44 70.6955 76.1041 70.7447ZM74.9124 62.601L36.4612 68.2278C36.1253 68.2769 35.7835 68.1906 35.5113 67.9879C35.2391 67.7851 35.0585 67.4825 35.0093 67.1466C34.9602 66.8107 35.0465 66.469 35.2492 66.1967C35.4519 65.9245 35.7546 65.7439 36.0905 65.6947L74.5418 60.068C74.8776 60.0188 75.2194 60.1052 75.4916 60.3079C75.7638 60.5106 75.9445 60.8133 75.9936 61.1491C76.0428 61.485 75.9564 61.8268 75.7537 62.099C75.551 62.3712 75.2483 62.5518 74.9124 62.601ZM73.7207 54.4573L35.2694 60.0841C34.9336 60.1332 34.5918 60.0469 34.3196 59.8442C34.0474 59.6415 33.8668 59.3388 33.8176 59.0029C33.7685 58.667 33.8548 58.3253 34.0575 58.0531C34.2602 57.7809 34.5629 57.6002 34.8988 57.5511L73.3501 51.9243C73.6859 51.8751 74.0277 51.9615 74.2999 52.1642C74.5721 52.3669 74.7528 52.6696 74.8019 53.0055C74.8511 53.3414 74.7647 53.6831 74.562 53.9553C74.3593 54.2275 74.0566 54.4082 73.7207 54.4573ZM72.529 46.3137L34.0777 51.9404C33.7419 51.9896 33.4001 51.9032 33.1279 51.7005C32.8557 51.4978 32.675 51.1951 32.6259 50.8592C32.5767 50.5234 32.6631 50.1816 32.8658 49.9094C33.0685 49.6372 33.3712 49.4566 33.7071 49.4074L72.1584 43.7806C72.4942 43.7315 72.836 43.8178 73.1082 44.0205C73.3804 44.2233 73.5611 44.5259 73.6102 44.8618C73.6594 45.1977 73.573 45.5394 73.3703 45.8116C73.1676 46.0839 72.8649 46.2645 72.529 46.3137ZM71.3373 38.17L32.886 43.7968C32.5502 43.8459 32.2084 43.7596 31.9362 43.5568C31.664 43.3541 31.4833 43.0515 31.4342 42.7156C31.385 42.3797 31.4714 42.038 31.6741 41.7657C31.8768 41.4935 32.1795 41.3129 32.5154 41.2637L70.9667 35.637C71.3025 35.5878 71.6443 35.6741 71.9165 35.8769C72.1887 36.0796 72.3693 36.3823 72.4185 36.7181C72.4676 37.054 72.3813 37.3957 72.1786 37.668C71.9759 37.9402 71.6732 38.1208 71.3373 38.17Z" fill="#032433"/>
</g>
<path opacity="0.8" d="M354.151 187.009L327.611 199.869C326.511 200.402 325.668 201.35 325.267 202.504C324.867 203.659 324.941 204.925 325.474 206.025L334.716 225.1L328.081 228.315C327.861 228.422 327.693 228.611 327.613 228.842C327.532 229.073 327.547 229.327 327.654 229.546L337.097 249.037C337.686 250.245 338.728 251.171 339.998 251.611C341.267 252.052 342.659 251.972 343.869 251.388L377.459 235.113C378.559 234.58 379.402 233.632 379.803 232.477C380.203 231.323 380.129 230.057 379.596 228.957L360.307 189.147C359.774 188.047 358.826 187.204 357.672 186.803C356.517 186.402 355.251 186.476 354.151 187.009ZM344.562 245.42C344.935 246.19 344.987 247.076 344.706 247.885C344.426 248.693 343.835 249.356 343.066 249.729C342.296 250.102 341.409 250.154 340.601 249.874C339.793 249.593 339.129 249.003 338.756 248.233L329.714 229.572L335.52 226.759L344.562 245.42ZM373.753 229.197L348.573 241.398C348.353 241.504 348.1 241.519 347.869 241.439C347.638 241.359 347.448 241.19 347.342 240.97C347.235 240.75 347.22 240.497 347.301 240.266C347.381 240.035 347.549 239.845 347.769 239.739L372.949 227.538C373.169 227.432 373.422 227.417 373.653 227.497C373.884 227.577 374.074 227.746 374.18 227.966C374.287 228.186 374.302 228.439 374.221 228.67C374.141 228.901 373.973 229.091 373.753 229.197ZM371.169 223.864L345.989 236.065C345.769 236.171 345.516 236.186 345.285 236.106C345.054 236.026 344.864 235.857 344.758 235.637C344.651 235.417 344.636 235.164 344.717 234.933C344.797 234.702 344.965 234.513 345.185 234.406L370.365 222.206C370.585 222.099 370.838 222.084 371.069 222.164C371.3 222.245 371.49 222.413 371.596 222.633C371.703 222.853 371.718 223.106 371.638 223.337C371.557 223.568 371.389 223.758 371.169 223.864ZM368.585 218.531L343.405 230.732C343.185 230.838 342.932 230.853 342.701 230.773C342.47 230.693 342.28 230.524 342.174 230.304C342.067 230.084 342.053 229.831 342.133 229.6C342.213 229.369 342.381 229.18 342.601 229.073L367.781 216.873C368.001 216.766 368.254 216.751 368.485 216.832C368.716 216.912 368.906 217.08 369.012 217.3C369.119 217.52 369.134 217.774 369.054 218.004C368.973 218.235 368.805 218.425 368.585 218.531Z" fill="#032433"/>
<path d="M344.554 220.889L341.42 222.408L339.272 203.432L342.897 201.676L356.467 215.117L353.332 216.636L342.759 205.848L342.632 205.909L344.554 220.889ZM341.578 214.483L350.126 210.341L351.269 212.7L342.72 216.842L341.578 214.483ZM354.576 196.017L362.43 212.228L359.493 213.65L351.639 197.44L354.576 196.017Z" fill="white"/>
<g clip-path="url(#clip1_4_266)">
<path fill-rule="evenodd" clip-rule="evenodd" d="M390.688 355.304H339.616C334.224 355.304 329.832 350.912 329.832 345.52V277.408H400.463V345.52C400.471 350.912 396.079 355.304 390.687 355.304H390.688ZM348.696 342C346.528 342 344.761 340.232 344.761 338.064V290.048C344.761 287.88 346.528 286.112 348.696 286.112C350.872 286.112 352.632 287.88 352.632 290.048V338.056C352.64 340.232 350.872 342 348.696 342ZM365.152 342C362.985 342 361.216 340.232 361.216 338.064V290.048C361.216 287.88 362.984 286.112 365.152 286.112C367.328 286.112 369.088 287.88 369.088 290.048V338.056C369.088 340.232 367.328 342 365.152 342ZM381.608 342C379.44 342 377.672 340.232 377.672 338.064V290.048C377.672 287.88 379.44 286.112 381.608 286.112C383.776 286.112 385.544 287.88 385.544 290.048V338.056C385.544 340.232 383.775 342 381.607 342H381.608Z" fill="#FA1239"/>
</g>
<g opacity="0.62">
<path fill-rule="evenodd" clip-rule="evenodd" d="M400.479 287.325L435.913 346.606C436.179 347.05 436.747 347.194 437.192 346.928L441.992 344.059C442.816 343.566 443.086 342.491 442.594 341.668L407.992 283.778C407.5 282.954 406.424 282.684 405.601 283.176L400.801 286.045C400.356 286.311 400.216 286.885 400.479 287.325Z" fill="#FA1239"/>
<path fill-rule="evenodd" clip-rule="evenodd" d="M419.048 305.925L428.324 321.443C428.59 321.888 429.158 322.031 429.603 321.765L434.403 318.896C435.227 318.404 435.497 317.329 435.005 316.506L426.558 302.372C426.066 301.549 424.99 301.279 424.167 301.771L419.367 304.64C418.931 304.908 418.782 305.48 419.048 305.925Z" fill="#FA1239"/>
</g>
<path d="M262.787 115C285.982 119.431 336.863 139.185 354.821 182.748" stroke="url(#paint2_linear_4_266)" stroke-width="0.5" stroke-linecap="round"/>
<defs>
<linearGradient id="paint0_linear_4_266" x1="275.289" y1="151.307" x2="324.622" y2="185.331" gradientUnits="userSpaceOnUse">
<stop stop-color="white" stop-opacity="0.56"/>
<stop offset="0.5"/>
<stop offset="1" stop-color="white" stop-opacity="0.51"/>
</linearGradient>
<linearGradient id="paint1_linear_4_266" x1="268.289" y1="128.307" x2="317.622" y2="162.331" gradientUnits="userSpaceOnUse">
<stop stop-color="white" stop-opacity="0.56"/>
<stop offset="0.5"/>
<stop offset="1" stop-color="white" stop-opacity="0.51"/>
</linearGradient>
<linearGradient id="paint2_linear_4_266" x1="271.148" y1="115.512" x2="353.369" y2="172.219" gradientUnits="userSpaceOnUse">
<stop stop-color="white" stop-opacity="0.56"/>
<stop offset="0.5"/>
<stop offset="1" stop-color="white" stop-opacity="0.51"/>
</linearGradient>
<clipPath id="clip0_4_266">
<rect width="81.92" height="81.92" fill="white" transform="translate(0.741211 12.6024) rotate(-8.3253)"/>
</clipPath>
<clipPath id="clip1_4_266">
<rect width="98.3036" height="98.3036" fill="white" transform="translate(316 257)"/>
</clipPath>
</defs>
</svg>
